<mxfile host="Electron" agent="Mozilla/5.0 (Windows NT 10.0; Win64; x64) AppleWebKit/537.36 (KHTML, like Gecko) draw.io/26.0.16 Chrome/132.0.6834.196 Electron/34.2.0 Safari/537.36" version="26.0.16">
  <diagram name="Private Endpoint" id="TsoTyFvkitL9VcPvH4r_">
    <mxGraphModel dx="1437" dy="879" grid="1" gridSize="10" guides="1" tooltips="1" connect="1" arrows="1" fold="1" page="1" pageScale="1" pageWidth="850" pageHeight="1100" math="0" shadow="0">
      <root>
        <mxCell id="0" />
        <mxCell id="1" parent="0" />
        <mxCell id="oN_d5BuCqfo3HxMSe-B_-35" value="" style="rounded=0;whiteSpace=wrap;html=1;dashed=1;" parent="1" vertex="1">
          <mxGeometry x="910" y="770" width="160" height="190" as="geometry" />
        </mxCell>
        <mxCell id="oN_d5BuCqfo3HxMSe-B_-34" value="Paired Region (Germany North)" style="rounded=1;whiteSpace=wrap;html=1;fillColor=#ffe6cc;strokeColor=#d79b00;" parent="1" vertex="1">
          <mxGeometry x="870" y="760" width="120" height="30" as="geometry" />
        </mxCell>
        <mxCell id="oN_d5BuCqfo3HxMSe-B_-17" value="" style="rounded=0;whiteSpace=wrap;html=1;dashed=1;" parent="1" vertex="1">
          <mxGeometry x="80" y="200" width="770" height="370" as="geometry" />
        </mxCell>
        <mxCell id="oN_d5BuCqfo3HxMSe-B_-5" value="" style="rounded=0;whiteSpace=wrap;html=1;dashed=1;" parent="1" vertex="1">
          <mxGeometry x="190" y="230" width="440" height="280" as="geometry" />
        </mxCell>
        <mxCell id="oN_d5BuCqfo3HxMSe-B_-7" value="" style="rounded=0;whiteSpace=wrap;html=1;dashed=1;" parent="1" vertex="1">
          <mxGeometry x="425" y="296" width="150" height="120" as="geometry" />
        </mxCell>
        <mxCell id="oN_d5BuCqfo3HxMSe-B_-1" value="kv-example" style="image;aspect=fixed;html=1;points=[];align=center;fontSize=12;image=img/lib/azure2/security/Key_Vaults.svg;" parent="1" vertex="1">
          <mxGeometry x="750" y="320" width="68" height="68" as="geometry" />
        </mxCell>
        <mxCell id="oN_d5BuCqfo3HxMSe-B_-2" value="10.1.0.0/16 Virtual Network" style="image;aspect=fixed;html=1;points=[];align=center;fontSize=12;image=img/lib/azure2/networking/Virtual_Networks.svg;" parent="1" vertex="1">
          <mxGeometry x="600" y="490" width="67" height="40" as="geometry" />
        </mxCell>
        <mxCell id="oN_d5BuCqfo3HxMSe-B_-3" value="10.1.1.5" style="image;aspect=fixed;html=1;points=[];align=center;fontSize=12;image=img/lib/azure2/networking/Private_Endpoint.svg;" parent="1" vertex="1">
          <mxGeometry x="470" y="310" width="72" height="66" as="geometry" />
        </mxCell>
        <mxCell id="oN_d5BuCqfo3HxMSe-B_-4" value="Private DNS Zone&lt;div&gt;&lt;br&gt;&lt;/div&gt;&lt;div&gt;Zone: privatelink.vaultcore.azure.net&lt;br&gt;&lt;/div&gt;&lt;div&gt;Record:&amp;nbsp;&lt;span style=&quot;background-color: light-dark(#ffffff, var(--ge-dark-color, #121212)); color: light-dark(rgb(0, 0, 0), rgb(255, 255, 255));&quot;&gt;kv-example A 10.1.1.5&lt;/span&gt;&lt;/div&gt;" style="image;aspect=fixed;html=1;points=[];align=center;fontSize=12;image=img/lib/azure2/networking/DNS_Zones.svg;" parent="1" vertex="1">
          <mxGeometry x="-80" y="310" width="64" height="64" as="geometry" />
        </mxCell>
        <UserObject label="&lt;a href=&quot;https://learn.microsoft.com/en-us/azure/storage/common/storage-private-endpoints&quot;&gt;Use private endpoints - Azure Storage | Microsoft Learn&lt;/a&gt;" link="https://learn.microsoft.com/en-us/azure/storage/common/storage-private-endpoints" id="oN_d5BuCqfo3HxMSe-B_-6">
          <mxCell style="text;whiteSpace=wrap;html=1;" parent="1" vertex="1">
            <mxGeometry x="240" y="20" width="330" height="40" as="geometry" />
          </mxCell>
        </UserObject>
        <mxCell id="oN_d5BuCqfo3HxMSe-B_-8" value="Subnet&lt;div&gt;10.1.1.0/24&amp;nbsp;&lt;/div&gt;" style="image;aspect=fixed;html=1;points=[];align=center;fontSize=12;image=img/lib/azure2/networking/Subnet.svg;" parent="1" vertex="1">
          <mxGeometry x="540" y="400" width="68" height="40.72" as="geometry" />
        </mxCell>
        <mxCell id="oN_d5BuCqfo3HxMSe-B_-9" value="VNet Link" style="endArrow=none;html=1;rounded=0;entryX=0.002;entryY=0.425;entryDx=0;entryDy=0;entryPerimeter=0;exitX=0.953;exitY=0.609;exitDx=0;exitDy=0;exitPerimeter=0;" parent="1" source="oN_d5BuCqfo3HxMSe-B_-4" target="oN_d5BuCqfo3HxMSe-B_-5" edge="1">
          <mxGeometry width="50" height="50" relative="1" as="geometry">
            <mxPoint x="50" y="400" as="sourcePoint" />
            <mxPoint x="100" y="350" as="targetPoint" />
          </mxGeometry>
        </mxCell>
        <mxCell id="oN_d5BuCqfo3HxMSe-B_-16" style="edgeStyle=orthogonalEdgeStyle;rounded=0;orthogonalLoop=1;jettySize=auto;html=1;exitX=0.971;exitY=0.516;exitDx=0;exitDy=0;exitPerimeter=0;entryX=0.042;entryY=0.682;entryDx=0;entryDy=0;entryPerimeter=0;" parent="1" source="oN_d5BuCqfo3HxMSe-B_-10" target="oN_d5BuCqfo3HxMSe-B_-3" edge="1">
          <mxGeometry relative="1" as="geometry" />
        </mxCell>
        <mxCell id="oN_d5BuCqfo3HxMSe-B_-11" value="" style="rounded=0;whiteSpace=wrap;html=1;dashed=1;" parent="1" vertex="1">
          <mxGeometry x="220" y="296" width="150" height="120" as="geometry" />
        </mxCell>
        <mxCell id="oN_d5BuCqfo3HxMSe-B_-10" value="10.1.0.20" style="image;aspect=fixed;html=1;points=[];align=center;fontSize=12;image=img/lib/azure2/compute/Virtual_Machine.svg;" parent="1" vertex="1">
          <mxGeometry x="260" y="322" width="69" height="64" as="geometry" />
        </mxCell>
        <mxCell id="oN_d5BuCqfo3HxMSe-B_-12" value="Subnet&lt;div&gt;10.1.1.0/24&amp;nbsp;&lt;/div&gt;" style="image;aspect=fixed;html=1;points=[];align=center;fontSize=12;image=img/lib/azure2/networking/Subnet.svg;" parent="1" vertex="1">
          <mxGeometry x="335" y="400" width="68" height="40.72" as="geometry" />
        </mxCell>
        <UserObject label="&lt;a href=&quot;https://learn.microsoft.com/en-us/azure/private-link/private-endpoint-dns-integration&quot;&gt;Azure Private Endpoint DNS integration | Microsoft Learn&lt;/a&gt;" link="&lt;a href=&quot;https://learn.microsoft.com/en-us/azure/private-link/private-endpoint-dns-integration&quot;&gt;Azure Private Endpoint DNS integration | Microsoft Learn&lt;/a&gt;" id="oN_d5BuCqfo3HxMSe-B_-14">
          <mxCell style="text;whiteSpace=wrap;html=1;" parent="1" vertex="1">
            <mxGeometry x="235" y="50" width="340" height="40" as="geometry" />
          </mxCell>
        </UserObject>
        <mxCell id="oN_d5BuCqfo3HxMSe-B_-15" value="&lt;span style=&quot;font-size: 12px;&quot;&gt;kv-example&lt;/span&gt;&lt;span style=&quot;font-size: 12px;&quot;&gt;.vaultcore.azure.net&lt;/span&gt;" style="edgeStyle=orthogonalEdgeStyle;rounded=0;orthogonalLoop=1;jettySize=auto;html=1;entryX=-0.015;entryY=0.5;entryDx=0;entryDy=0;entryPerimeter=0;exitX=0.917;exitY=0.682;exitDx=0;exitDy=0;exitPerimeter=0;" parent="1" source="oN_d5BuCqfo3HxMSe-B_-3" target="oN_d5BuCqfo3HxMSe-B_-1" edge="1">
          <mxGeometry relative="1" as="geometry" />
        </mxCell>
        <mxCell id="oN_d5BuCqfo3HxMSe-B_-19" value="Primary Region" style="rounded=1;whiteSpace=wrap;html=1;" parent="1" vertex="1">
          <mxGeometry x="60" y="190" width="120" height="30" as="geometry" />
        </mxCell>
        <mxCell id="oN_d5BuCqfo3HxMSe-B_-20" value="" style="rounded=0;whiteSpace=wrap;html=1;dashed=1;" parent="1" vertex="1">
          <mxGeometry x="300" y="770" width="550" height="190" as="geometry" />
        </mxCell>
        <mxCell id="oN_d5BuCqfo3HxMSe-B_-21" value="" style="rounded=0;whiteSpace=wrap;html=1;dashed=1;" parent="1" vertex="1">
          <mxGeometry x="320" y="810" width="310" height="110" as="geometry" />
        </mxCell>
        <mxCell id="oN_d5BuCqfo3HxMSe-B_-23" value="kv-example" style="image;aspect=fixed;html=1;points=[];align=center;fontSize=12;image=img/lib/azure2/security/Key_Vaults.svg;" parent="1" vertex="1">
          <mxGeometry x="750" y="840" width="68" height="68" as="geometry" />
        </mxCell>
        <mxCell id="oN_d5BuCqfo3HxMSe-B_-24" value="" style="image;aspect=fixed;html=1;points=[];align=center;fontSize=12;image=img/lib/azure2/networking/Virtual_Networks.svg;" parent="1" vertex="1">
          <mxGeometry x="590" y="900" width="67" height="40" as="geometry" />
        </mxCell>
        <mxCell id="oN_d5BuCqfo3HxMSe-B_-25" value="" style="image;aspect=fixed;html=1;points=[];align=center;fontSize=12;image=img/lib/azure2/networking/Private_Endpoint.svg;" parent="1" vertex="1">
          <mxGeometry x="470" y="830" width="72" height="66" as="geometry" />
        </mxCell>
        <mxCell id="oN_d5BuCqfo3HxMSe-B_-29" style="edgeStyle=orthogonalEdgeStyle;rounded=0;orthogonalLoop=1;jettySize=auto;html=1;exitX=0.971;exitY=0.516;exitDx=0;exitDy=0;exitPerimeter=0;entryX=0.042;entryY=0.682;entryDx=0;entryDy=0;entryPerimeter=0;" parent="1" source="oN_d5BuCqfo3HxMSe-B_-31" target="oN_d5BuCqfo3HxMSe-B_-25" edge="1">
          <mxGeometry relative="1" as="geometry" />
        </mxCell>
        <mxCell id="oN_d5BuCqfo3HxMSe-B_-31" value="" style="image;aspect=fixed;html=1;points=[];align=center;fontSize=12;image=img/lib/azure2/compute/Virtual_Machine.svg;" parent="1" vertex="1">
          <mxGeometry x="335" y="842" width="69" height="64" as="geometry" />
        </mxCell>
        <mxCell id="oN_d5BuCqfo3HxMSe-B_-33" value="&lt;span style=&quot;font-size: 12px;&quot;&gt;kv-example&lt;/span&gt;&lt;span style=&quot;font-size: 12px;&quot;&gt;.vaultcore.azure.net&lt;/span&gt;" style="edgeStyle=orthogonalEdgeStyle;rounded=0;orthogonalLoop=1;jettySize=auto;html=1;entryX=-0.015;entryY=0.5;entryDx=0;entryDy=0;entryPerimeter=0;exitX=0.917;exitY=0.682;exitDx=0;exitDy=0;exitPerimeter=0;" parent="1" source="oN_d5BuCqfo3HxMSe-B_-25" target="oN_d5BuCqfo3HxMSe-B_-23" edge="1">
          <mxGeometry relative="1" as="geometry" />
        </mxCell>
        <mxCell id="oN_d5BuCqfo3HxMSe-B_-36" value="Primary Region&lt;div&gt;(Germany West)&lt;/div&gt;" style="rounded=1;whiteSpace=wrap;html=1;fillColor=#d5e8d4;strokeColor=#82b366;" parent="1" vertex="1">
          <mxGeometry x="284" y="760" width="120" height="30" as="geometry" />
        </mxCell>
        <mxCell id="oN_d5BuCqfo3HxMSe-B_-37" value="kv-example" style="image;aspect=fixed;html=1;points=[];align=center;fontSize=12;image=img/lib/azure2/security/Key_Vaults.svg;" parent="1" vertex="1">
          <mxGeometry x="950" y="838" width="68" height="68" as="geometry" />
        </mxCell>
        <mxCell id="oN_d5BuCqfo3HxMSe-B_-38" value="Geo-Replication" style="endArrow=none;dashed=1;html=1;rounded=0;entryX=0.059;entryY=0.515;entryDx=0;entryDy=0;entryPerimeter=0;exitX=1.044;exitY=0.5;exitDx=0;exitDy=0;exitPerimeter=0;" parent="1" source="oN_d5BuCqfo3HxMSe-B_-23" target="oN_d5BuCqfo3HxMSe-B_-37" edge="1">
          <mxGeometry width="50" height="50" relative="1" as="geometry">
            <mxPoint x="770" y="950" as="sourcePoint" />
            <mxPoint x="820" y="900" as="targetPoint" />
          </mxGeometry>
        </mxCell>
        <mxCell id="oN_d5BuCqfo3HxMSe-B_-39" value="" style="rounded=0;whiteSpace=wrap;html=1;dashed=1;" parent="1" vertex="1">
          <mxGeometry x="300" y="1000" width="550" height="190" as="geometry" />
        </mxCell>
        <mxCell id="oN_d5BuCqfo3HxMSe-B_-40" value="" style="rounded=0;whiteSpace=wrap;html=1;dashed=1;" parent="1" vertex="1">
          <mxGeometry x="320" y="1040" width="310" height="110" as="geometry" />
        </mxCell>
        <mxCell id="oN_d5BuCqfo3HxMSe-B_-42" value="" style="image;aspect=fixed;html=1;points=[];align=center;fontSize=12;image=img/lib/azure2/networking/Virtual_Networks.svg;" parent="1" vertex="1">
          <mxGeometry x="590" y="1130" width="67" height="40" as="geometry" />
        </mxCell>
        <mxCell id="oN_d5BuCqfo3HxMSe-B_-43" value="" style="image;aspect=fixed;html=1;points=[];align=center;fontSize=12;image=img/lib/azure2/networking/Private_Endpoint.svg;" parent="1" vertex="1">
          <mxGeometry x="470" y="1060" width="72" height="66" as="geometry" />
        </mxCell>
        <mxCell id="oN_d5BuCqfo3HxMSe-B_-44" style="edgeStyle=orthogonalEdgeStyle;rounded=0;orthogonalLoop=1;jettySize=auto;html=1;exitX=0.971;exitY=0.516;exitDx=0;exitDy=0;exitPerimeter=0;entryX=0.042;entryY=0.682;entryDx=0;entryDy=0;entryPerimeter=0;" parent="1" source="oN_d5BuCqfo3HxMSe-B_-45" target="oN_d5BuCqfo3HxMSe-B_-43" edge="1">
          <mxGeometry relative="1" as="geometry" />
        </mxCell>
        <mxCell id="oN_d5BuCqfo3HxMSe-B_-45" value="" style="image;aspect=fixed;html=1;points=[];align=center;fontSize=12;image=img/lib/azure2/compute/Virtual_Machine.svg;" parent="1" vertex="1">
          <mxGeometry x="335" y="1072" width="69" height="64" as="geometry" />
        </mxCell>
        <mxCell id="oN_d5BuCqfo3HxMSe-B_-46" value="&lt;span style=&quot;font-size: 12px;&quot;&gt;kv-example&lt;/span&gt;&lt;span style=&quot;font-size: 12px;&quot;&gt;.vaultcore.azure.net&lt;/span&gt;" style="edgeStyle=orthogonalEdgeStyle;rounded=0;orthogonalLoop=1;jettySize=auto;html=1;exitX=0.917;exitY=0.682;exitDx=0;exitDy=0;exitPerimeter=0;" parent="1" source="oN_d5BuCqfo3HxMSe-B_-43" target="oN_d5BuCqfo3HxMSe-B_-23" edge="1">
          <mxGeometry relative="1" as="geometry">
            <mxPoint x="979" y="970" as="targetPoint" />
          </mxGeometry>
        </mxCell>
        <mxCell id="oN_d5BuCqfo3HxMSe-B_-47" value="Secondary Region&lt;div&gt;(Sweden Central)&lt;/div&gt;" style="rounded=1;whiteSpace=wrap;html=1;fillColor=#fff2cc;strokeColor=#d6b656;" parent="1" vertex="1">
          <mxGeometry x="284" y="983" width="120" height="30" as="geometry" />
        </mxCell>
        <mxCell id="oN_d5BuCqfo3HxMSe-B_-48" value="Private DNS Zone&lt;div&gt;&lt;br&gt;&lt;/div&gt;&lt;div&gt;Zone: privatelink.vaultcore.azure.net&lt;br&gt;&lt;/div&gt;&lt;div&gt;Record:&amp;nbsp;&lt;span style=&quot;background-color: light-dark(#ffffff, var(--ge-dark-color, #121212)); color: light-dark(rgb(0, 0, 0), rgb(255, 255, 255));&quot;&gt;kv-example A 10.1.1.5&lt;/span&gt;&lt;/div&gt;" style="image;aspect=fixed;html=1;points=[];align=center;fontSize=12;image=img/lib/azure2/networking/DNS_Zones.svg;" parent="1" vertex="1">
          <mxGeometry x="88" y="983" width="64" height="64" as="geometry" />
        </mxCell>
        <mxCell id="oN_d5BuCqfo3HxMSe-B_-49" value="VNet Link" style="endArrow=none;html=1;rounded=0;entryX=0;entryY=0.5;entryDx=0;entryDy=0;exitX=1.078;exitY=0.188;exitDx=0;exitDy=0;exitPerimeter=0;" parent="1" source="oN_d5BuCqfo3HxMSe-B_-48" target="oN_d5BuCqfo3HxMSe-B_-21" edge="1">
          <mxGeometry width="50" height="50" relative="1" as="geometry">
            <mxPoint x="24" y="950" as="sourcePoint" />
            <mxPoint x="204" y="951" as="targetPoint" />
          </mxGeometry>
        </mxCell>
        <mxCell id="oN_d5BuCqfo3HxMSe-B_-50" value="VNet Link" style="endArrow=none;html=1;rounded=0;entryX=0;entryY=0.5;entryDx=0;entryDy=0;" parent="1" target="oN_d5BuCqfo3HxMSe-B_-40" edge="1">
          <mxGeometry width="50" height="50" relative="1" as="geometry">
            <mxPoint x="160" y="1030" as="sourcePoint" />
            <mxPoint x="330" y="875" as="targetPoint" />
          </mxGeometry>
        </mxCell>
        <mxCell id="oN_d5BuCqfo3HxMSe-B_-51" value="&lt;font style=&quot;font-size: 21px;&quot;&gt;1&lt;/font&gt;" style="ellipse;whiteSpace=wrap;html=1;aspect=fixed;fillColor=#d5e8d4;strokeColor=#82b366;" parent="1" vertex="1">
          <mxGeometry x="160" y="836" width="60" height="60" as="geometry" />
        </mxCell>
        <mxCell id="oN_d5BuCqfo3HxMSe-B_-53" value="&lt;font style=&quot;font-size: 21px;&quot;&gt;2&lt;/font&gt;" style="ellipse;whiteSpace=wrap;html=1;aspect=fixed;fillColor=#fff2cc;strokeColor=#d6b656;" parent="1" vertex="1">
          <mxGeometry x="150" y="1136" width="60" height="60" as="geometry" />
        </mxCell>
        <mxCell id="csRXqz02GXvmB3zvsZuc-27" value="" style="rounded=0;whiteSpace=wrap;html=1;dashed=1;" parent="1" vertex="1">
          <mxGeometry x="932" y="1300" width="160" height="190" as="geometry" />
        </mxCell>
        <mxCell id="csRXqz02GXvmB3zvsZuc-28" value="Paired Region (Germany North)" style="rounded=1;whiteSpace=wrap;html=1;fillColor=#ffe6cc;strokeColor=#d79b00;" parent="1" vertex="1">
          <mxGeometry x="892" y="1290" width="120" height="30" as="geometry" />
        </mxCell>
        <mxCell id="csRXqz02GXvmB3zvsZuc-29" value="" style="rounded=0;whiteSpace=wrap;html=1;dashed=1;" parent="1" vertex="1">
          <mxGeometry x="322" y="1300" width="550" height="190" as="geometry" />
        </mxCell>
        <mxCell id="csRXqz02GXvmB3zvsZuc-30" value="" style="rounded=0;whiteSpace=wrap;html=1;dashed=1;" parent="1" vertex="1">
          <mxGeometry x="342" y="1340" width="310" height="110" as="geometry" />
        </mxCell>
        <mxCell id="csRXqz02GXvmB3zvsZuc-32" value="" style="image;aspect=fixed;html=1;points=[];align=center;fontSize=12;image=img/lib/azure2/networking/Virtual_Networks.svg;" parent="1" vertex="1">
          <mxGeometry x="612" y="1430" width="67" height="40" as="geometry" />
        </mxCell>
        <mxCell id="csRXqz02GXvmB3zvsZuc-33" value="" style="image;aspect=fixed;html=1;points=[];align=center;fontSize=12;image=img/lib/azure2/networking/Private_Endpoint.svg;" parent="1" vertex="1">
          <mxGeometry x="492" y="1360" width="72" height="66" as="geometry" />
        </mxCell>
        <mxCell id="csRXqz02GXvmB3zvsZuc-34" style="edgeStyle=orthogonalEdgeStyle;rounded=0;orthogonalLoop=1;jettySize=auto;html=1;exitX=0.971;exitY=0.516;exitDx=0;exitDy=0;exitPerimeter=0;entryX=0.042;entryY=0.682;entryDx=0;entryDy=0;entryPerimeter=0;" parent="1" source="csRXqz02GXvmB3zvsZuc-35" target="csRXqz02GXvmB3zvsZuc-33" edge="1">
          <mxGeometry relative="1" as="geometry" />
        </mxCell>
        <mxCell id="csRXqz02GXvmB3zvsZuc-35" value="" style="image;aspect=fixed;html=1;points=[];align=center;fontSize=12;image=img/lib/azure2/compute/Virtual_Machine.svg;" parent="1" vertex="1">
          <mxGeometry x="357" y="1372" width="69" height="64" as="geometry" />
        </mxCell>
        <mxCell id="csRXqz02GXvmB3zvsZuc-36" value="&lt;span style=&quot;font-size: 12px;&quot;&gt;stg-example&lt;/span&gt;&lt;span style=&quot;font-size: 12px;&quot;&gt;.blob.core.windows.net&lt;/span&gt;" style="edgeStyle=orthogonalEdgeStyle;rounded=0;orthogonalLoop=1;jettySize=auto;html=1;entryX=-0.015;entryY=0.5;entryDx=0;entryDy=0;entryPerimeter=0;exitX=0.917;exitY=0.682;exitDx=0;exitDy=0;exitPerimeter=0;" parent="1" source="csRXqz02GXvmB3zvsZuc-33" edge="1">
          <mxGeometry relative="1" as="geometry">
            <mxPoint x="770.98" y="1404" as="targetPoint" />
          </mxGeometry>
        </mxCell>
        <mxCell id="csRXqz02GXvmB3zvsZuc-37" value="Primary Region&lt;div&gt;(Germany West)&lt;/div&gt;" style="rounded=1;whiteSpace=wrap;html=1;fillColor=#d5e8d4;strokeColor=#82b366;" parent="1" vertex="1">
          <mxGeometry x="306" y="1290" width="120" height="30" as="geometry" />
        </mxCell>
        <mxCell id="csRXqz02GXvmB3zvsZuc-39" value="Geo-Replication" style="endArrow=none;dashed=1;html=1;rounded=0;entryX=0.059;entryY=0.515;entryDx=0;entryDy=0;entryPerimeter=0;exitX=1.044;exitY=0.5;exitDx=0;exitDy=0;exitPerimeter=0;" parent="1" edge="1">
          <mxGeometry width="50" height="50" relative="1" as="geometry">
            <mxPoint x="842.9919999999997" y="1404" as="sourcePoint" />
            <mxPoint x="976.0119999999997" y="1403.02" as="targetPoint" />
          </mxGeometry>
        </mxCell>
        <mxCell id="csRXqz02GXvmB3zvsZuc-40" value="" style="rounded=0;whiteSpace=wrap;html=1;dashed=1;" parent="1" vertex="1">
          <mxGeometry x="322" y="1530" width="550" height="190" as="geometry" />
        </mxCell>
        <mxCell id="csRXqz02GXvmB3zvsZuc-41" value="" style="rounded=0;whiteSpace=wrap;html=1;dashed=1;" parent="1" vertex="1">
          <mxGeometry x="342" y="1570" width="310" height="110" as="geometry" />
        </mxCell>
        <mxCell id="csRXqz02GXvmB3zvsZuc-42" value="" style="image;aspect=fixed;html=1;points=[];align=center;fontSize=12;image=img/lib/azure2/networking/Virtual_Networks.svg;" parent="1" vertex="1">
          <mxGeometry x="612" y="1660" width="67" height="40" as="geometry" />
        </mxCell>
        <mxCell id="csRXqz02GXvmB3zvsZuc-43" value="" style="image;aspect=fixed;html=1;points=[];align=center;fontSize=12;image=img/lib/azure2/networking/Private_Endpoint.svg;" parent="1" vertex="1">
          <mxGeometry x="492" y="1590" width="72" height="66" as="geometry" />
        </mxCell>
        <mxCell id="csRXqz02GXvmB3zvsZuc-44" style="edgeStyle=orthogonalEdgeStyle;rounded=0;orthogonalLoop=1;jettySize=auto;html=1;exitX=0.971;exitY=0.516;exitDx=0;exitDy=0;exitPerimeter=0;entryX=0.042;entryY=0.682;entryDx=0;entryDy=0;entryPerimeter=0;" parent="1" source="csRXqz02GXvmB3zvsZuc-45" target="csRXqz02GXvmB3zvsZuc-43" edge="1">
          <mxGeometry relative="1" as="geometry" />
        </mxCell>
        <mxCell id="csRXqz02GXvmB3zvsZuc-45" value="" style="image;aspect=fixed;html=1;points=[];align=center;fontSize=12;image=img/lib/azure2/compute/Virtual_Machine.svg;" parent="1" vertex="1">
          <mxGeometry x="357" y="1602" width="69" height="64" as="geometry" />
        </mxCell>
        <mxCell id="csRXqz02GXvmB3zvsZuc-47" value="Secondary Region&lt;div&gt;(Sweden Central)&lt;/div&gt;" style="rounded=1;whiteSpace=wrap;html=1;fillColor=#fff2cc;strokeColor=#d6b656;" parent="1" vertex="1">
          <mxGeometry x="306" y="1513" width="120" height="30" as="geometry" />
        </mxCell>
        <mxCell id="csRXqz02GXvmB3zvsZuc-48" value="Private DNS Zone&lt;div&gt;&lt;br&gt;&lt;/div&gt;&lt;div&gt;Zone: privatelink.blob.core.windows.net&lt;br&gt;&lt;/div&gt;&lt;div&gt;Record:&amp;nbsp;&lt;span style=&quot;background-color: light-dark(#ffffff, var(--ge-dark-color, #121212)); color: light-dark(rgb(0, 0, 0), rgb(255, 255, 255));&quot;&gt;stg-example A 10.1.1.5&lt;/span&gt;&lt;/div&gt;" style="image;aspect=fixed;html=1;points=[];align=center;fontSize=12;image=img/lib/azure2/networking/DNS_Zones.svg;" parent="1" vertex="1">
          <mxGeometry x="110" y="1513" width="64" height="64" as="geometry" />
        </mxCell>
        <mxCell id="csRXqz02GXvmB3zvsZuc-49" value="VNet Link" style="endArrow=none;html=1;rounded=0;entryX=0;entryY=0.5;entryDx=0;entryDy=0;exitX=1.078;exitY=0.188;exitDx=0;exitDy=0;exitPerimeter=0;" parent="1" source="csRXqz02GXvmB3zvsZuc-48" target="csRXqz02GXvmB3zvsZuc-30" edge="1">
          <mxGeometry width="50" height="50" relative="1" as="geometry">
            <mxPoint x="46" y="1480" as="sourcePoint" />
            <mxPoint x="226" y="1481" as="targetPoint" />
          </mxGeometry>
        </mxCell>
        <mxCell id="csRXqz02GXvmB3zvsZuc-50" value="VNet Link" style="endArrow=none;html=1;rounded=0;entryX=0;entryY=0.5;entryDx=0;entryDy=0;" parent="1" target="csRXqz02GXvmB3zvsZuc-41" edge="1">
          <mxGeometry width="50" height="50" relative="1" as="geometry">
            <mxPoint x="182" y="1560" as="sourcePoint" />
            <mxPoint x="352" y="1405" as="targetPoint" />
          </mxGeometry>
        </mxCell>
        <mxCell id="csRXqz02GXvmB3zvsZuc-51" value="&lt;font style=&quot;font-size: 21px;&quot;&gt;1&lt;/font&gt;" style="ellipse;whiteSpace=wrap;html=1;aspect=fixed;fillColor=#d5e8d4;strokeColor=#82b366;" parent="1" vertex="1">
          <mxGeometry x="172" y="1320" width="60" height="60" as="geometry" />
        </mxCell>
        <mxCell id="csRXqz02GXvmB3zvsZuc-52" value="&lt;font style=&quot;font-size: 21px;&quot;&gt;2&lt;/font&gt;" style="ellipse;whiteSpace=wrap;html=1;aspect=fixed;fillColor=#fff2cc;strokeColor=#d6b656;" parent="1" vertex="1">
          <mxGeometry x="172" y="1666" width="60" height="60" as="geometry" />
        </mxCell>
        <mxCell id="csRXqz02GXvmB3zvsZuc-53" value="stg-example" style="verticalLabelPosition=bottom;html=1;verticalAlign=top;align=center;strokeColor=none;fillColor=#00BEF2;shape=mxgraph.azure.storage;pointerEvents=1;" parent="1" vertex="1">
          <mxGeometry x="772" y="1370" width="68" height="50" as="geometry" />
        </mxCell>
        <mxCell id="csRXqz02GXvmB3zvsZuc-54" value="" style="verticalLabelPosition=bottom;html=1;verticalAlign=top;align=center;strokeColor=none;fillColor=#00BEF2;shape=mxgraph.azure.storage;pointerEvents=1;" parent="1" vertex="1">
          <mxGeometry x="970" y="1370" width="80" height="50" as="geometry" />
        </mxCell>
        <mxCell id="csRXqz02GXvmB3zvsZuc-55" value="&lt;span style=&quot;font-size: 12px;&quot;&gt;stg-example&lt;/span&gt;&lt;span style=&quot;font-size: 12px;&quot;&gt;.blob.core.windows.net&lt;/span&gt;" style="edgeStyle=orthogonalEdgeStyle;rounded=0;orthogonalLoop=1;jettySize=auto;html=1;entryX=0.5;entryY=1;entryDx=0;entryDy=0;entryPerimeter=0;" parent="1" source="csRXqz02GXvmB3zvsZuc-43" target="csRXqz02GXvmB3zvsZuc-53" edge="1">
          <mxGeometry relative="1" as="geometry" />
        </mxCell>
        <UserObject label="&lt;a href=&quot;https://learn.microsoft.com/en-us/azure/storage/common/storage-private-endpoints&quot;&gt;Use private endpoints - Azure Storage | Microsoft Learn&lt;/a&gt;" link="&lt;a href=&quot;https://learn.microsoft.com/en-us/azure/storage/common/storage-private-endpoints&quot;&gt;Use private endpoints - Azure Storage | Microsoft Learn&lt;/a&gt;" id="csRXqz02GXvmB3zvsZuc-56">
          <mxCell style="text;whiteSpace=wrap;html=1;" parent="1" vertex="1">
            <mxGeometry x="940" y="1530" width="330" height="40" as="geometry" />
          </mxCell>
        </UserObject>
        <mxCell id="csRXqz02GXvmB3zvsZuc-57" value="" style="shape=image;verticalLabelPosition=bottom;labelBackgroundColor=default;verticalAlign=top;aspect=fixed;imageAspect=0;image=data:image/png,iVBORw0KGgoAAAANSUhEUgAABHQAAADxCAYAAACqPuDOAAAAAXNSR0IArs4c6QAAAARnQU1BAACxjwv8YQUAAAAJcEhZcwAADsMAAA7DAcdvqGQAAAASdEVYdFNvZnR3YXJlAEdyZWVuc2hvdF5VCAUAAJxeSURBVHhe7f15sDVFte4Lz//v/yq6Qw0NDSUUu2sTNmGzryLfB1z53G5Frigo6sXmAFvEvhePuu85ih7cimK/7Zsr6MFe5IoNom7sFTwCYoPYgLj1iNf64jdrP+/KNWZmVmXNudY753qfJ+KJNVdlVVbmyDFGZo7Kypp1K8J1f7nWNE3TNE3TNE3TNE3TnMgWzOKBqYiFME3TNE3TNE3TNE3TNMezBQ7omKZpmqZpmqZpmqZprgFb4ICOaZqmaZqmaZqmaZrmGrAFDuiYpmmapmmapmmapmmuAVvggI5pmqZpmqZpmqZpmuYasAUO6JimaZqmaZqmaZqmaa4BW+CAjmmapmmapmmapmma5hqwBSsL6PzhL9ctFMQ0TdM0TdM0TdM0TdMcJnGVFqwsoPPvf/1jd52DOqZpmqZpmqZpmqZpmo28bh5XacHKAjo3/O0Gr9IxTdM0TdM0TdM0TdNsJPEU4iotWFlAB1x/w/VepWOapmmapmmapmmapjma183jKa1YaUDnr3/7a6ZgpmmapmmapmmapmmaZonEU1qx0oAOYIlQXyCv1DFN0zRN0zRN0zRN08yzj5u0vmolrDygA4gssVyo31PHgR3TNE3TNE3TNE3TNM2e183jJcRNpqzMEXYkoCMQZWKXZm+WbJqmaZqmaZqmaZrmgU7iI8RJpq7KSbGjAR3DMAzDMAzDMAzDMAxj9XBAxzAMwzAMwzAMwzAMY8PggI5hGIZhGIZhGIZhGMaGwQEdwzAMwzAMwzAMwzCMDYMDOoZhGIZhGIZhGIZhGBsGB3QMwzAMwzAMwzAMwzA2DA7oGIZhGIZhGIZhGIZhbBgc0DEMwzAMwzAMwzAMw9gwOKBjGIZhGIZhGIZhGIaxYXBAxzAMwzAMwzAMwzAMY8PggI5hGIZhGIZhGIZhGMaGwQEdwzAMwzAMwzAMwzCMDYMDOoZhGIZhGIZhGIZhGBsGB3QMwzAMwzAMwzAMwzA2DA7oGIZhGIZhGIZhGIZhbBgc0DEMwzAMwzAMwzAMw9gwOKBjGIZhGIZhGIZhGIaxYXBAxzAMwzAMwzAMwzAMY8PggI5hGIZhGIZhGIZhGMaGwQEdwzAMwzAMwzA2Bjc56DbdV756cTxsGIZxwMEBHcMwDMMwDMMwNgYEdP7+7490UMcwjAMeDugYhmEYhmEYhrExIKADHNQxDONAhwM6hmEYhmEYhmFsDBTQAQ7qGIZxIMMBHcMwDMMwDMMwNgZpQAc4qGMYxoEKB3QMwzAMwzAMw9gYxIAOcFDHMIwDEQ7oGIZhGIZhGIaxMcgFdICDOoZhHGhwQMcwDMMwDMMwjI1BKaADHNQxDONAggM6hmEYhmEYhmFsDGoBnT//zxsc1DEM44CBAzqGYRiGYRiGYWwMagEd8Pvf/8FBHcMwDgg4oGMYhmEYhmEYxsZgKKADfvnLqx3UMQxjz8MBHcMwDMMwDMMwNgZjAjrg8suvnAd1DMMw9ioc0DEMwzAMwzAMY2MQAzrXX/+nfb8J4EQahmHsVTigYxiGYRiGYRjGxiAN6BDM+V/+l5t055z7mfn//9v/9r9355xzXnK2YRjG3oUDOoZhGIZhGIZhbAwU0FEwh31y7njHe82P8ZqVfhuGYex1OKBjGIZhGIZhGMbGgIBOGswBhx/+yO6LX/zqvt9epWMYxoEAB3TWENdff333sIc9rLvFLW7Rfetb34rJxh7DGWec0d3oRjfqPvnJT8YkYz/il7/8ZXeXu9xlTn4bxqog3cLP4+8Nwzhw8Je//KV785vf3N3+9ref9/2PetSjuj/+8Y/xtAMGU8e87ItDMOdJT35qd/Ob33wuy2P+j8d1t7v93efp3/veD7o73ene8TJjDcH4l/Z76lOfGpPWBh4TGuuMlQd0NDktsdVhH4iY2rkZmwkHdNYT7ryn44Ybbuie9axndTe+8Y27N77xjTF5z+A73/lOd7vb3a57wAMe0F111VUxuQgHdAzjwMTf/va37nWve928zyeg8+QnP7k76aST5n6AMcDNbnaz7uijjz6g/MLUMS+BsVNOOWUuy3vc4x5zWb7oRS+ar8whmAP+1//1AfEyYw3hgI5hLIcdC+jc8pa37O585zsv8P73v3/3ve99L15mJJjauRnjcOGFF86fiH3605+OSTuCP/3pT9273vWu7hGPeES2E3BAZz3hzns6HNCp+5m9EtChL2cAvpfb2Nh/qNnQpuKnP/1pd4c73KG7973v3f3iF7/YluaATtuY9ytf+Up305vedD62SuV11c9/MV+lc/zxT+2+8c1Ltl1jrCcc0BmHnfaJQ/MVY32xYwEd/hrTMLVzM8aBDmM3AyhDnYADOuuJoXYzjBpqfmavBHTc3xs7iZoNbSo+85nPrP3Edbcxdcz7hje8wf5nj8ABnXHYaZ+4DnU0psEBnTXE1M7NGIeddogRQw7SAZ31xFC7GUYNNT/jgI5hDKNmQ5uKTZi47jamjnntf/YONsEu1mFMuNM+cR3qaEyDAzpriKmdmzEOO+0QI4YcpAM664mhdjOMGmp+xgEdwxhGzYY2FZswcd1tTB3z2v/sHWyCXazDmHCnfeI61NGYhrUI6Fx33XXzTeLuete7zq+F7MHz9Kc/vfvxj38cT982GL722mvnXwvQDvef/exn4+nbMPbav/71r91HP/rR+XvOKhO/OUZaBPsnvOAFL+gOOeSQfefz+6yzzpq/k5gD15x88snzunI+707z/2WXXTapc5tSBo6/733v6+53v/ttkz0bzV1zzTWTz50iv1QWkPtccMEF285DV17ykpd0Bx988L7z0Jv3vve9287LQY4wx+gc0RNkmd6H3xwb6+Ska/FeMHWWaUDnV7/61VwO6ALHbnOb23Svf/3ri+0neXAe59/kJjfpHv3oR3c//OEP46lVqL1i25522mkLE042deQ93sMOO2zfuavUs1Z/AGhb2Qt1RwbIgmvRu3POOWde7hw4/5hjjtkm85e+9KVzOyx1bC22VvM5b3vb2+b3o64///nPt10nXHTRRfOyPfKRj1zIOyLVpSuuuKI78sgj5//Hr6i06k1OP2Sf55133vz/OBCrBSppi4svvnib3JUnepKrZ5qf/IWuRfbIlU0yh8D+Pk984hPn+/ucf/75MXl+jDTk8ec//3lbmva/UFvkAjNj/Ex6HW2Bfqa+knYrtUUJv/3tb+d2w+agyof2pZ25RwuG/KzaIsfY96M7n/rUp7rDDz98n03yl/85nusPUnv+5je/2d3nPveZX/eMZzxjX55f+9rX5vqT9hn4JHxTi63jX2nXkq2DVnspYUob5WxF8uP4Ks+FJRscmnSX0qP/S8cFkuOll166La8xNjQG9Bf0G3Fc8YlPfGLbea2yAK3+SBPWHFUn5Ib8oi8FrT641B5j0ofsD0wZB8Rx3tQxb8n/xOt3wvcMgbojg3T8In9emx9NkeeUsdIY7OY4QuOzndTh3RgTtvr21vIt6xOlX6ktUL/HPe5x87qMna8IrXOk1Lehz8iFctz2tred70UI8JfU5YgjjtjWf9V0ajftbd2x3wM63/72t+ebJXMNyn/CCSfMd/xXh0+jnnvuuduuSQcI+lqAOKTYY65l0PH4xz9+W5mgJmFs9smkIOZJGuWm/On5p5566rbzAR0Fm2lKiVDyY489dl7f+973vvN8ck6qhClloHN9yEMesk/O3J9yUJ5475ZzW+X3jW98Y1+HQLswyT/00EPnhpzq0ZVXXtnd6173mp/3oAc9aH7ewx/+8Hl5cgOgiHe/+93za+52t7vN82DTL/6H6KFAR0+d0rZRXTlGu9F+Q/j9738/7wT48gJlhPzmfhwnHchm3vSmN83rR4dA+yELjpfaL7Udtbmu4V5DtiCkX4rgqxvUlfbCOUdHzrkvfOELF/RAn1/NbebYojtT/AFQ5/iWt7xl3kFIP/grGX7oQx+Kl83zUschGR511FH7Bn3UK8qg1dZqPoeJBcEFfjOgyeFVr3rVPP0jH/lITFqAdOmd73zntkFTGnBo1ZtUP5AL8lGbsCEldSct2mApoJPqEEQ3yF/+j2MMHPEjKcbYCbIqDdJSfPCDH5yf//KXvzwmzY+RRuCGiX4KDTrll9K2lXzH+Bldx8Dj9NNP7w466KDuMY95zDZbQv8vuWTchp4a2HJd6rOUV9w0tIYxfpZ9QDj+4Ac/eH4ef1VH0oS0L5DucI5sjOPYSwzEyZ4JIKmfhLq/Jsdpnqo/x3K2xAA5HTCntk6ALmfroNVeSpjSRiVbkT9N+8dVnFuzwdrkqZY+RteRb2prY2yoBnwAAZVSe6e+aoosQKs/otzkS11Io26xTumkJ8UUH1xqjzHpQ/Y3ZRywyjFvyf8897nPnQcgwE75nhq4J74yyoX64s8JEpAW50dT5Dl1rDQGOzWOQN5pe6i8PEChzlHONR0dSlc77saYcIpvby3fMj4RH6SxJ+NUdIX7EwS51a1uNZfd2PkKmDJHkm97ylOeMrdT1TFtO+mdbCCVR248tJv2tgnYrwGdX//613NngaHQKabRchSQQRmNjXL84Af9JwiBBggoNgaH0uci7TkMXct9pWwYchqp+93vfrfPsL/whS/sO3711VfPr4lfOWHlAYMDjPVHP/rRvuNpvd/znvdsm4Bwj+OOO25B0YfQWgaUVQOL5z//+dvqiTw+9rGP7YuItpzbKj8mvscff/zcoeMkUhDVTr+IpokWupLKjHuMlRPAcMkndjgAPUPfkD36l96HunJvyk/70Y5jIJ2LnYAgmyHf17zmNdv08atf/eq8LLH9Uh3iiUdaTp5c48zGlrH0pQjy/O53v7vtGCtKKCvtSHsKtAHtTRrnCC26M9UfALUpzjmVB3+xMdKwg7TMamtkFVdqMCjURCi2W6utDfkcAjXch8BODNr95je/mQ9273SnO3WXX375trQcpEsMPJg0xTJO0Ru1ORMyVpAJXEseGhzHAW8poKP8kJUG30Lq/5BxWr6anfCUmrbPBWFyoH1op3SAChggPPShD51POvFJMTDwnOc8Z24r2AzIBXSEmp/RddyDJ8A/+clP9qVhI0972tPm13K/MeDePBmLT7HIS/416ngJLX621t+nfQFtmtoeSG0s9RkA2THw5Othz3zmMxeecFIXBqjxSZr0IK6uqtk6slcAK9r6FHspYUobnXnmmUVbwTcTpJpy7hQbrE2eaulDuk7duVcuuFqzoRqwW9qMCWecWOATmagKU2QBpvojBSOjvwSlgM4UH1xqjzHpQ/bXOg7YiTEvKPmfnfQ9JaT3PPHEE7etZEE30BHScuVdRp6tY6Ux2O1xhMq7ah0mv90YE07x7VPKl17X4hNrX9YjLa3L0Hxl6hxJvo0yEIDFR6bXgne84x3dhz/84QV9ljzS8dBu2tumYMcCOiWmxvr2t799fowVG7FhBT2d5q8ghZsi9KFrNdDHkFhCF8FrWRjn2IG2Bsep8Q3VmwHPHe94x6yTmoJcGTSJfMITnrDwhCKi5dxW+ckhx0lwDuhOzjG2ouYQKRdpPN3LQa9rcM6YFRNgyEHKZnKv1CjgFcsrHXrFK16xoEP8r09Gj5GVBphDOq3gArqZDsqF73//+/OOMJ1MtejOkF2AnD8AatOcPHDY6CNPIrS0Ewy19Ze//OV5Z1tqtxxytjbkcwgQMdHJBW1kLzWZpJAuxc5UaNUbtTntSvtGcA15kWechOQCOkP5AWSALKI8lF9Ol1I7SVeIlIB+oqfR7+Bv0ZOXvexl87TUJqRH6SBrFQGd3GvCCrLm8m2FViPFQU0JLX62NKEC6gvQbXQ8B71OSBAtXQEh2fGELfrEGtRG0Wan2nqrvUxFro1kByV/m6Ll3Kk2WJs81dKl68gXOUdI13nSmg7KQc2GSlBQtnS/FFNlAab6o9aAzlAZSz641B5j0mv2N2UcMNS3Tx3zlvzP/vA9Q/dER9CVWN6dkCcojZXGYF3GETUdHUpflzFhzreDKeUDU3yi/Ep80JHD0HxlSEalOZLKkD7QHwsFpNLx0G7a26ZgxwI6vMfJ05FIntIDdXjp084cpARpZy+Fyz39GMLQtSXjE3KKJRDFRoFReDoJLd9KjQ/DZRlbrd41JzWEsWXgHdvSZCJFy7mgVX7krygrTwLihDaFoqosweOJY3SCY1FyiHKiJd0Q9NoFkdwxGHKQshk6yRwUadbyWdlOTT+G2iFFGnH/wAc+sDA4FTTwRh9yso+TqRbdWcYfgNokVDaXpv/hD3+Yv6dba+uhdhtja2DI54Dca1UaGDGAYPA5BtKl3NPuKXrD022eVnJdXD0klCYoKksqC+lQLT/pDdemk6GxdlJKj1B+1Dk9RjvRqRNgTYM30r00yLNsQIeBBQOMCHSLCSQ6iq6OBUH0j3/8492LX/ziuY0waJFOjvEFoMXPSoa5vGuvtQnq6+LAVbJL2yaCp3C0ydlnnz0/nyd/2psjtdmptj7FXsZgbBupn6lN2oSWc6fa4NC4pJQ+Vtdz6TUbKkF2mntAEjFVFmCqPyr5S6Cyp2lTfXCpPcak1+xvyjhgp8a8Jf+z074nB8ZnQ/fMlbdVnsuOlcZgXcYRQ3pRS98fY8Kxvh20lk+Y4hPTFVX4pZo+1Oq4zBxJ+phbdZSC+Qd727ACl1fD7n73u8/HwOSXjrN2y942CTsW0InKGyFDHFIMKVfuqWjrYBcMXavyDzFVLKL7eocZYjS8XsExveMr4xtT75qTKmHVZRBazgVT5MfyS70HCWnr3IZ1OCENrCDvrJc2LKyh5BBzupaDHFOtc0pRc5BAMovlEaJNqU2iTHMcskOAU0OOcpp0vLmNzdThDlH1bNGdseeW2og2rdlLbPNSPilK7dZia2k+JZ8DcjqlJ8NjJiaCdCX37vwUvVGb1zrN3EAM5PR6TH5A18ZgS8wvRbSTIUjm6tiRMbJWG5BPqlNMzGJwUm2b+jMh6lyK2nVpetS9EhgEsclg2oYMJnk3XK88jpVLi5+tyTzXhjkgpzg54Rh+KL4uI7BnQLr5JIGcBz7wgfP38wlOp3KbautT7KWG1jYaKz/Qcu5UGxwal5TSl9H1mg2VMLZ+YOy5URbpsVLZSrZR8pdAPilNG1PGXJ6l9hiTXrM/3WuIas8xfXutLDWUZJxrrxym+J4SxtwzV96dkCfI+b3SvaLcVc79PY4Y0ota+m6OCVt9O2gt39DxIfCKk/aEYsxKPrmNs0t1TNNqMgK58ayOEajKBVIAAfNb3/rW+2TIChwelmpfn7QP2S172yTs94AOE5b4fmYKKVA6GRoaINQwdK3Kn244lSNfxmA5Fsqqjb44Huui/GR8Y+pdc1I57EQZhJZzQav8BAycr0yw+aAMCqeRuydOCGek98ZZ+TW0KViKkkPM6VoOYxxTipqDBLF9IqJNqU1wcNq0rMS43LsGfTFBK02QL8sqVUc5wnQD1By1gVqL7ow9t9RGrZ1jKZ8UuXZrtTUw5HOAggnpK0B6Xa20tDWH3P2FKXqjNq/589xADOTKonN5SlSDrk0HlLn8UkQ7GYKexGhlgJbw6om6nuTwv55Kxq+R1do26lyK2nVpeslnRGj/FH0NIvVLY9owhzF+tibzXBvmkJtA1ewZm2OZNenshZI+bZSOp3IbkjXIyXuKvdTQ2kZj5Qdazp1qg0PjklL6kPxzshdqNlTC2PqBsedGWaTHSmUr2UbJXwKNLdK0nG5E5PIstceY9Jr96V6rHAfUylJDSca59sqh1ffUMKQPIFfenZAnyI1xtDF3ZLqZNKjVZYpfHGNnu6nDIPqWnLwiSr6q1beD1vINHR8Dxpk8nEkfhrA5cLoqv1THNK0mI5CbI+V8W4pLLrlk/qoT4ww+FpIrU9qH1HRUWIW9bRL2W0BHexjE6HiElCB9ny3XuGMxdK3eDX3DG94Qk7Lg3T2WhOWWCwO9byilY/DJapTYiaTQ0r+asadoLcNY2YOWc0Gr/HJg2SKOgHwe+9jHFt9jRJZ675YN7HJ79uRQcoh6t3LoyYeWEw7tOSPUHCQYckzRptQmcanwqsDKKDpinCuTuS996Uvz4yz9ZIXC2FfNWnRn7Lk5fwBaO0fZTG1QpFcB0nZrtTUw5HMEBXCwIckj7tswhJouTdEb9ID8asFLLX2NHXWuLNKh2uo27qNX9dLlxrn8UkQ7GQOeGErneNKTBtTkDygrbcjvuHF1rW2jzqWoXZeml3xGCvUpcT8gQT65RS4pan62JnPdt/ZUVgPyWPaaPUsnc/5XbZaz2VZbn2IvJUxpozHyE1rOnWqDtclTLX0ZXa/ZUAlj6ieMOTcnCzDVH2lCEf0lyE16pvrgUnuMSa/ZX+s4YCfGvEJJxmPsYYrvqYExL/esBS30Gl5a3lZ5LjtWGoOabk/xi+umwyD6lqn9xBTfDlrLN3S8BbQBwT3qS158QUuo+eNl5kg535ZC9hNfUQV62Jb2Ibtlb5uE/RbQATx55tzae9/KL31KPTRAqGHoWm2UNvY1BylpLj8GvjwBjsZHJ8Ox3GZYQBtv1Yw9xZQySK412Qst57bKr4Sc48xhykCg5BCpG3WM+paCQR+OIL56UUPNQYJa5wlyNqU9V0rlXAWiM9QrQKVNyHJo0Z2p/gC0do5accEx9g3KgeOkp+02xdaGfI7Ayg9WgGA73/jGN+YBtZoschjSpVa9UUdaCiylG8/FjjpXFm0AXdocEWD797znPRf0LJdfipydDEGd+3/9r/91rg+p39JEjjYh2MYAOi7vrbVt1LkUtevS9JLPSFE7t7QxYCtKfrYmc20uGNsxhewp9hc1e67dM7dppSYgXFPayD5n66DVXkqY0kaSTU1+Qsu5U20Qe9CDlvj1N6D2ju22jK7XbKgE+dFa/YSpsgBT/RHn5/wlyE16pvrgqe0FavY3ZRyw6jGvUJLxTvmeGtSXxE2WhXR8kJZ3ijyXGSuNwZBut/pFJv8EAUob0e62DoPoW6aOCWv+q+TbQWv5ho5PQS6IVqvPMnOknG9LUauX5J72Ibtpb5uC/RrQ0dLpoU/vcU4aMR0aINQwdC2OXd+uf+UrX7kQlOC1lNNPP31fZFpRXcrJK0MC10mpo5JKsWH87BvOjvpyXc3YU0wpQ032/OYzevpkeMu5rfJjSdsXv/jFhY14L7vssvmrPzJWBuWf//znFzbzwmj//u//vjjYyUE6mtv9/5L/WPaXa5v0k3zxE9816ClCaXPboc4zZ1Pp5xU/97nPLXTqLPtkH5wxZfz617++IDvy0zvBmgRxTBtY08nGz3nS1ryylT7FbNGd2rk1fwCmdI50ZthG7tO2fHpT7xunHdsUWxvyOYI6Swbvp5122uATuByGdKlVb9Q5k2f8/Ks+DalXcmJHXSpL7fPK5K9P2HJeilJ+Qs5OhqAJ3f3vf//u4IMPXrgWncNueRU09wSu1rY1P1O7Lk3PDaoi9IQQ3cOehNg+sW45tPpZTU7jyiWQvp4YdQfoM7CULw7Wa/asp718/jYdyKV9Z5TbFFsHrfZSwpQ2GpIfG1bLN7ecC6baoJ42E9xL78FvPgFLWmy3ZXS9ZkM11OpH38FG2mPOrcliqj9qDegs44OntBeo2d+UccCqx7xCScZD9jDV99SgcR735OMv6dg3jg/S8k6R5zJjpTEY0u1Wv7huOgxWNSac4tvBlPKBKT6RcUvuAwf6HHia19B8ZeocKefbUmjFDQ/R0vlgKve0D9lNe9OYo0Xm+wP7NaADMBo1FkrCxqI0+CGHHDI/Rlo0rKEBQg1jrr3yyiu7e93rXvP7o9RsbMU7dYceeuhcUdOlhigHjc+5pOFgqAN1IQ+ui0bJNRpEQL7OgfJx7UEHHdQ96UlPmgcyasaeYkoZQCp7NpWknsieQEq8d8u5LfJTe3AeTpHzKD/nwXPOOWd+noyXY+TDeeTLddyH+kdnVYJWEXEdefJ1LTolAaeudPSQekqeHGO3eOrYAj3RYNkxefEqmaLDQ51nyaaQjToLlRPydJJjY79uoPy5TnnI/sgjnTTxWxtYS9doC45JZnE/iRbdmeIPwJTOkU5Dgz7IAI+6aKD3vOc9b2GV2BRbG+NzhFQ3S08eahjSJdCqN+g6Ok+a7Fl1pj309DV21KWylOQuu+cY6THIW8pPKNlJDbSnNgDO6Y+eLJIen+SCWtvW/EztujQ9N8nNIW1T5CmboY14F3ysXFr9rJ52kcZXsdCLt771rfvS0V/ti5b6Cz05g/SF0XfX7Dn1QfIR0h1+YzdRbjmdo8+l72XQl7N1odVeSpjSRlF+ahNkHc9vOTcnjzE2qK+lkK6+DPIb/WZfgthuy+h6zYZqiPWjzLS3JgCpr4rnjpXFVH/UGtABU33wlPYCNfsDreOAVY95hZKMQbSHVfieIeTGL/KftIPGB7G8rfIEuXvJp3CsNFYagyHdBq1+MafDKu/+0GHSYx1LvqA2JgRTfPuU8oEpPlE+h4dWyE59H8cYt8b5TG2+AqbMkUq+TUjnjcoTWdI/P/vZz57LPfYhORvYCXsjMDflAetuY78HdACGQTQXZeNaiFNghUeMnun82gChhrHXcl9WKKRl4gktg/+4MzhOgOVncqQoxMknnzz/elPJMdKJ8Gm2ww47bF/+GBgRXpSN8tWMPWJKGUBO9hhC7qsmLeeOlR/X0anGL5ZgmET5BSL8H/7wh+dP0uU4qSOTLOQYO+UaOBc5a/NfHAFLflNQRsqqz+CqrjzZi3UdAzo2osIqO0+XtRdFrX1AzaaQESui5IQgsmTilbOdHAiukcfYunLsrLPO2tdxq83Ig1UrubZo0Z3cuTV/AKZ2jlolpM4NYpPoFEv3cxONVlsb63NA+tShtKS1htz9c2jVG9mzOmzVmad/pQlKrSzInS/ZHX744aPtuZYfqNlJDdq7KBdAS1/XyeVba9uan6ldl6ZH3SuBezGolB4jU8p96aWX7mufXPkjpvhZ9tjiSbDOff/7378tHfvGzjUohzkfn2LInrE19C8dVGIv+FRkmpPbFFsXWu0lh6ltlJMfvjH3JcKWc6fYIIiyR69f/epXd9dcc0123LKMrtdsaAi5+qF3cQxSOndIFlP9UclfgtqkZ4oPBq3tBYbsD7SOA1Y95gUlGQs5e1jW9wyB9ojypt1ov1p5W+UJpoyVxmBIt4VWv7hOOrzKMeEU3z61fFN84s9+9rO532MONkZPavMVoXWOVPNtAvJCbrov8kSuknuuD9lpe9MYkOBSXOm3blh5QMcwDMOYBgV04qst6wwNWPbiJnPGgQEFFXidcq+9V2/sfdgHbwY0wVzmoyGGYYzDKuxN2yzkPsKwbnBAxzAMY02g5bQ8+cg9kVtHaKl07usEhrEJ0Cfqp3wRxjD2N+yD1x/adJdXSNL9OQzDWD1WZW+MDVhZtEweuwUHdAzDMNYABHDYFJkOaOwX1PY3tKlwbemwYawzZHelpdmGsc6wD94M6ItMvOLBKySGYewcVmVvBMnxr5uwctcBHcMwjDWAPlXOO7y5d5D3F97xjnfMP9cdNwVls0J9ASZ+mcAw1gnsE8bXFeM+AOjsv/zLv8zf2WdZdfzKkWGsA+yDNwPs6/KFL3xh21enAF9t1WbMbLC6KatvDWOdYXvbDgd0DMMw9hPYM+fEE0/s/vEf/3E+qSSgQ2BnnaD3kHkVTF+i0xfrOM6GeWxaaBjrCm3IiL6ycSN7jfA1DG3oiN1twpJq48CEffBmQBvZ6mue+Jl0Q2b6+jFfxDMMYxi2t+1wQMcwDGM/gc5Gn0/kicIll1wST9nvYFUDX0NIv0THRIIvIeW+UmYY6wZWLnzsYx+bf8ks/SILX8fKfQHKMNYJ9sGbAT5kcNppp+37AqaCcEccccT8K2pxJYFhGNNhe9sOB3QMwzAMwzAMwzAMwzA2DA7oGIZhGIZhGIZhGIZhbBgc0DEMwzAMwzAMwzAMw9gwOKBjGIZhGIZhGIZhGIaxYXBAxzAMwzAMwzAMwzCMFYNwwyZz/bEZpTQMwzAMwzAMwzAMY4MQAySbxvXHZpTSMAzDMAzDMAzDMIwNQgyQbBrXH5tRSsMwDMMwDMMwDMMwNggxQLJpXH9sRikNwzAMwzAMwzAMw9ggxADJpnH9sRmlNAzDMAzDMAzDMAxjgxADJJvG9cdmlNIwDMMwDMMwDMMwjA1CDJBsGtcfm1FKwzAMwzAMwzAMwzA2CDFAsmlcf2xGKQ3DMAzDMAzDMAzD2CDEAMmmcf2xGaU0DMMwDMMwDMMwDGODEAMkm8b1x2aU0jAMwzAMwzAMwzCMDUIMkGwa1x+bUUqjiF/+8pfdXe5ylzn5bRjG7sC2tzy++tWvdg95yEO6G93oRt1tb3vb7jvf+U48ZVfwrW99q7vFLW7RPfWpT41J+wXSrYc97GHd9ddfH5N3BGeccca8HT75yU/GJMNYGdAv9GxdbG1T4f7HWDdceuml3aMe9ai5fcPPfvaz8ZQmrFu/bCyDGCDZNK4/NqOURhHu1I0UDJZvdrObdUcfffSuTQQPVKyL7REEud3tbtc94AEP6K666qqYvLb4xje+0d3mNrfpbnKTm3SPecxjumOPPdYBnf+AAzqrww033NA961nP6m584xt3b3zjG2OysctwQGc1WJf+Zyxsh3sbV155ZXeve91rbtv0W/Tpn/vc5+JpTVi3fnmdse7jwG99a9bd4haz7k53mnWXXx6DJVu89tpZ99CHzrqb3WzWXXTRYvr+4/pjM0ppFLFpnfo643vf+96849jkwcb+Cuj87ne/61772td2J5xwwq7ed39iXWxv1R35n/70p+5d73pX94hHPGLH6sXg/vjjj58P7j/1qU/F5F3H/hg41vzNTgR0hmzUAR1jN+CAzmqwLv3PWOxPOxzyfcbyePnLXz636ze96U3d3/72t5hcxIUXXjhf1fPpT386Ju2XfnlTsepx4Kpxww2z7olPnHU3utGse9WrYrBkix/5SH8O53JNTN9/XH9sRimNIjatU19naELDX6MN6nhXOQFdd+xV29uNel199dXd3e9+9x29Rwv2x8Cx5m92IqAzZKN7NaBjrBcc0FkNdsNP7xUM+T5jOfzxj3/sHv7wh89ljKxbgB8o9Tv7o182dgr9ihtW3tzznrPuqqtiwGSdV+fA9cdmlNIowp366lCbYBl1HIgDpr1qe7tRr924Rwv2x8Cx5m8c0DH2KhzQWQ3WzYeuM4Z8n7EckCmydUDHKKNfcaNVOm9+cwyYbK3OOemkdVudA9cfm1FKowh36qtDbYJl1HEgDpj2qu3tRr124x4t2B8Dx5q/cUDH2KtwQGc1WDcfus4Y8n3GcnBAxxhGHxj58pf7FTj3u9+s+/WvtwImWp3DPjvst7MYUNnfXH+srJTsZs67sTWH+ZGPfGRuuLxHm75jSWf0ghe8oDv44IPn6ZDfHMt1VEMDgqH0iHTwfO2113Yf/ehHu3vf+97zPNiw89GPfvR89/YSeF/x5JNPnu9dwjX85f/Se4x//etft90D8ptjpOXwwx/+sDvmmGP23YPNRF/60pd2l112WXOnjux5b/Xwww+f109lftzjHpfNo6V+yFxOPV5HmV/ykpd01113Xbys+8tf/jJvtyOOOGLf+ZI9dY9IJx9XXHFFd+SRR87/511cln8C7o8OHXLIIfvkzO+zzjprvk9IzCvHONma0nY5TJXTUL1jB/j9739/nt997nOf+WsuOch2n/jEJ87fcwe//e1vu9e97nXdPe5xj331zJVL94tyg9EXSO8OO+ywfefk2mMMWvJa1r5bbS9tg5y+UGbKXnrPHPki+7ve9a77rrnlLW/ZPf3pT+9+/OMfx9OLk/+0HMgE2cgWZMO/+tWvFvKJ7QjTOrb6jxS1e0R/3dovxPqiq5RvzNezdrPNxvibtE3J+5xzztlWHuw+5xdzGGujqW9BL6JPev3rX79gWwJlRN6cx/k1311CrHO075qfTf3pN7/5zbm/45pnPOMZ8/RSsCq9ji+u6X6U/znPec4+X4evZZNP6Ttl+cxnPpPVh7G+UyiV/QlPeML8OnTq5z//ebxsjosuumjeRo985COLbZNibJ8IlvGbsqH73e9+29oPPT7vvPPm/0d7ryGXH/Z12mmnLYw3W/oGgePve9/7FvI/5ZRTumuuuWbbuS22LqRtjE0gu1SXkEtOl0Br/wOWaec3v/nN3c1vfvP5NW9729tWqoMlO0yPx/EQ5aZMjBEj5HfSPoKyvve9752nj/V9y4w/W8oLWnQt1xfV/KDKQn46n/tccMEF8dQi0MOLL754m84pH8qdtrECOVG2Ub45YBPxGlH6kfbLyBO5SqdpH/ZEys1DQKvsSmgd70R90FgrV84h398ybi+NA4UWvVtFf76IPjDyl7/Muic8oV+J84EPbAVMSqtz/va3WXfxxbPumGP6QBDnQAJC73vfrPvTn7YHXq6/ftY97GHlwNBQepnrj5WVko7goQ996D7ljEDhUDyUmw5AYENMOVwMFQWHMlo2eULRUwwFbIbSI2QIDJJPP/307qCDDpoP3rj+9re//TyvO9/5zt1Pf/rTeOm28vP5XYzjQQ960L6yx4kEcnr84x8/T8dYcEhQHSjBLk2qhXPPPXefc8AhnXTSSd1RRx01NzKcDGXMdeo54JwYjJAX9+Te1JNO8Fa3utVC27XWTw7q7LPPnqerTbmPnAM74bMjfgp1kNSTr92k9+G6Sy65JHv+O9/5zm0OSs4snThKZqmcTz311H1yZmDO/R784AfP0/jL/5A0YUrblbCsnEr1jgEdbT7LOQykI2SXdAz6xGTaSac2KVtgs1x1GEx0nvvc53aPfexj53lQFwa2yI4J4J///Of5eXTGL3zhC+fXq43TPFs2cW7Naxn7nmJ7agPaEj3jflyDTPSJbogdxkH8t7/97XlZSJeOcU8NSigLZUpR6sjTcnBv2Xuqs9SBCSj4/e9/P58oPPnJT57fB/KbazlOeqv/iKjd493vfve+86b0C6rvU57ylLlOSs6lPinFbrbZGH8zRmdzfjGHsTYq38KmlvgeAhLUIx2wp35TSOsvG9E11D1O3kpI6/yqV71qbmPqc2Rz5Mn/cbIkf8pEjvqpvPKDpYmkrnvRi14012dknNoHk5qvfe1r8zwlD/VLlCf61BbfKZTKjh7jm/kd7yMgJ9J5WDaElj4xPb+mgzm/SduQl2RE28ke0D/8ddo2QyA/2pxruC/XUW4m8dH3tvYNgImWbDy9hvaLvqPV1gW18Vve8pZ5gBkdok7SJfihD30oXjap/5nazuitfLv4iU98YqU6WLLDMb6H+6S+N/2qkuTJPi7IS7rV6vtax58t5QUtutY63tRXI0mjHNTh0EMPneuKHhQMIbUfKP9LOaWHPDykbAD5IUdkimyRMbKO8s2B/p7z7na3u83zxTeqH8TOwJgxDEGPGCxplV0JreOdqfOlnO9vHbeXxoGgRe9W1Z8vYis48oUvzLqb3KRfkcPKnNLqHII/L3zhVhDnIQ+ZdaecMuuOPXYruPOoR/XX65qhgM1Qepnrj5WWUo6dvxE/+tGP5h0ZQR85gx/84AdzJUahUNrU+RFBxVnijJi4/vrXv96XNhSwGUqPkCFgHDiHn/zkJ/vSiGrKsNjFPYXKj8Ng0CdQD6LAlJ0BoSLaHNdEAyNJI93swq+O+gtf+MK+4+k9zj///H3HAZ2VjDR26iUw+LrDHe4wN9Rf/OIXC2lpHq31A8gcOTLQoP3SSDgrSE488cR9DjVt73e84x3dhz/84W3nk/6e97xnfj5PS1OoQ2VQwyAzOnSi2sg6HicSjczQRXQyhfLMdX5T2q6GqXIaqncM6ACtjKPTjQOMyy+/vLvTne60zS7pDHi6F6PxsgXKHXVR9811JoAnfZQBOSEvgTyRJ2mcMwatea3CvmN9a7YnWUCe+HFuCvIiT8gKKgEfh69Dj6JO0G74SPKkTJRNKHXkKgf1ZqCbykp2QPk/+MEP7jsOlF+sF2jxHzXU7jG1X1B9KRtBEp5KRn0vYbfbDNT8zZDOPu1pT8v6xRqGbFTloS6vec1rttWF1StcG/1mWn/6hFTe9BnIK7ZTCarz3/3d383bMAbsuC8baaeDWAF/x4CbL3w885nPXFgJU5pIch3HaR8mRIImi9xLTzEVREoH+Ty1TCctU3xnrezy3enqSeE3v/lNd9/73nfuv/HjQ2jtE4d0sOQ35Z8JBKUrAFN7IH3s+OwrX/lKd9Ob3nQhGEZ+3/3ud7cda+0buJZ8Of785z9/W7+O/n/sYx/b15bL2Lr0jAlRaifpGIc2SMs8tf+Z2s5MrLE7Aktp3VapgyU7rPke/Dhyo99Jg4elryrRhnGiPeT7po4/W8rbomut4009uMNW41cj8Sd8UXEMZD/oSewDue9xxx03T6dsqcwVyEbGUfZDkG1EnQC1MQy/6au59u1vf/u+462yq6FlvDN1vjTk+8eO20vjwBa9W2V/voit4Airalhxc+Mbz7pzzy2vznnb27YCOVdcsT3A8rvfzbrjjuvTn/vcfiUPx4cCNkPpZa4/VlpKvd6RKpnAUjkUir8CTjIeS6EoJOek0f+hgM1QeoQMASf85S9/OSbvG1DgUPQ6D1D5P/CBD2w7H2A0LEFNO08FtXCWeiqeQkvo0s5jSEaUl3LHTr0EOcg4EM2htX5AzhlHGjt/IEc0dgAghxqdlDrUKc5FA4HYgdQmWFParoapchqqdy6gwwCPAXnMCzCZr+lXhM6PMqoNmDTou+Md77htUiDIb4zRySl5LWvfJdmUbC8NDpQGN7ngN4MSjsUgXorcdaWOXOUoyUptiQ6mqAVbWvxHDbV7DMm91C+obGMHayl2u81Azd+kk+kYvADS2djmNdRsFKg8uVcn0pV+qd9U/V/xilcs1J//9ZniOCHNIa1zbpUDKE0u5U/jgFkoTSR1XWwboGvuec97LkyO+R9/SoCptCQ+ouQ7a2Wv+W71OTXdG4tcnzjFb8o/x8CnQDnRFe41dnym8dxQ3zqlb5A+8YpDXPUVsYytq41zdsIkk3EFT/zTJ/hDfrDU/9RQa2eO5x6qrFIHS3ao47l2SH1PumIamY71LUO+r4Sh8WdLeVt0rXW8qYBKHI+3YMh2QWlcutMBnVKZ5FNTX9IquxpaxjvLzJdafX9u3F4aB7bo3Sr780VsD5B89rN9QIeVOfe//6y7zW1m3fe/v5X+m9/Muvved/F4yssvn3V3ulNPfnNsKGAzlF7m+mOlpdRAm04mfa1KypwqpjqxGMWO0PvW6aRjKGAzlB4hQ8CZ4dQiNHhL01X+2rvFsfMsDeiE2Hn84Q9/mEegazKqTYxySCOwPFlIJ7ApptQPyEGlHVkKnAKvWDAQZECYAmfDu6o8/WRpI4NlLfOMTkodanw6GEHb4dBwtgQatfQ6lhvUJlitbTeEqXIaqncuoCNHzHXpBLjUyQh0hh//+Me7F7/4xfNBOwNlyS7KoTZg0sA/96QBSNfG6PCUvKbY9zK2J1nEAFEKVh/wZIaBH35Tg8DY3hG5vEsd+dBgRGWI6aV6gbH+YwileyzTL6i+8Un3GOTkGrHKNgM1fzNWZ9FRdHUMajYKVJ70aWcK2pt0BVtU/9ogfshvplCda0ES1Tu2sfxpXG0mlCaSXFdqP40j8MPR18g/RP0VWnznUNlzr7TIp8ex1hiM7RPH6mCaHm0kh9bxWbpij8lSaVLS2jdwDueWgqYplrX1WvBBfX2avkz/I7S2c+1eq9LBkh2O9T1pulaT8EoLK7VybS4M+T4wZfw5trwtugaG/GYcb5K/VqWwcjsGAMZA9lOzXdWD+6Rj150O6MQxiiB/k/roVtnVMHa8s+x8Kef7W8ftuXFgi96tuj9fxPYACat0HvnIrdepnvWsrVU28CtfmXU3vemsO/748hevOP/pT++v/8xn+mNDAZuh9DLXHysvpQba6YRTm6alUXwpXxyYRcigUyczNCAYSo/IGUIuPe04dYz7DFEGrE5giCrHGBnlyjaECy64YN/7mjgq5BQ385tSP0BeNYcAcg6czuHWt771vjz1ep722ohtI1mWnuSyQoxOWflRT5YUc0x7V8QOpDbBam27IUyV01C9ZS9R99VZp0+29cQyPu1mYMOGaGm9mJDw3q2WbkYZ1QZMsschjtHhKXktY99TbK/UBimivDQgqg2qQa5cpfoNlSOWQSjVSxjjP4ZQukeufjnk+gUdy03AhzAkKxDltUybgZq/KbVpTI/yqyGWP6I02RJieVX/aHs55uoYMVRnUKo37cbAPr6mJZTqVvPDtXGE6h7LMcV3DpU9p+t6Up5bTVVCa5841B65tpDMSg8cQE2uOWDLbOapyTWyym2M3to3jLVfMPbckq3X9AzEvr6UT4qc/MHUdq4Fh1elgyU7LB0Xou8BTK4VXIDsYxM37RWGfN/U8efY8o7VH0HXDzEtF683EkhUGrrD61fp62A1jLFdoLKlQQjVr6bjJUTdTzHUL+fadYrsahgz3pENxXvkmNZzyPe3jNtz/rpF71bdny8iBki2VunkVuF88pN9oOblL1+8LuUZZ/TnffCD/f9DAZuh9DLXHysvpZaJpU9tiO7HCOGYTgTkBulDA4Kh9IicIeTS045TxzB0bbJWojb4kqNJN//KUZuJjZFRrmxjQKdH55d+iYPN0PT0a0r9wNDABciBK8J/ySWXzB0UG3GxCV/6BK7UNrUOFSenTRkpX1wuX7o2dsK5tLFtN4QpcgKlsgulDlCblqeOnbyiXYIzzzxzfg/tap9OjmVbUUa5jlXQNenmrzlq490apuRV0iEhZ0PL2F6pDVLoHD3JVWfKADnqa4pcuUr1GypHqc1K9Uox5D+GULpHrn455PqFofrWMObaVbYZqPmbUpvG9Ci/GkrtLQz5llhe1Z8Jjza2LrG0EjHFUJ2BzomreIb8aalutetq4wjVPcp/iu+slQHknshqGX3pdZyIKX3iUHvkdFB15Gl2CTW51qCvS2mlCZMr6h/HhWP7hrH2C8aeW7L1oTZWXy/5l/JJkZP/TrQzWIUOgtz9a8eF6HtSMLlGfugD5zCOTMekoOb7Vj3+BLG8Y/VH0PWt401sgS9UsXEx10MCO2PuOcZ2gcqWPlRU/Wo6XkLU/RRD/XKuXafKroah8Y70ZNXzpZZxe05XW/Ru1f35ImKAZNb98pez7i536QMsBFrSNAV0XvOaxetSKqDDXjz8PxSwGUovc/2xI6VUAIflo3ovM+6ro+NDkUOt+EnfdxwaEAylR+QMIZeedpwqfxxY1qD3E9/whjfEpCzIl/xrxqhlz3FgORZ0ADgY7kPZ9KWZKfUDyLy2LFlOI31fHHlw79zyVb0PG9um1qFKbqWl4nrXNV4bO+EUrW03hClyArV6g1oHqH2sqIs6imiXTFSZsMblnILkEGWU61gF/AD+IO7VMgVT8ppi38vYnmRRW7ocXxliYMEksKYTQHnn9giK9avpAii1WU4eJZT8xxBK91imXxiqbw273Wag5m9KbRrTo/xqKLW3MORbYnlV/+ijpkJ1qq1KUB1yr7TUBsalutWuq40j5J9T+U/1nbUyCJo8k4fkju8Z+2rFlD5xig4y0Cef2io5JoIluY4BKw64D5NwJvFf+tKX5sdb+4ax9gvGnluy9aE2jpPaqf3PTrSzsKwOgpIdlo4L0ffkgP1pfyY2mU33T6n5vlWPP0Es71j9EVYx3qT+2CH58OWpoeCF7KfWB6av8KSvD8of1nS8hKj7KYb69Fy7rkJ2JZTGO8vMl4ZkNmbcDnJ23KJ3q+7PFxEDJPWAzvnn96t3xrxyxXmcz7GhgM1Qepnrjx0ppYyMV6y0AVWM4qfvB8Y0AadC5xyjkXpvMjpZkOZbcgIROUPIpacdJ2WLn40bgl49G7tElXvgXKlLbqMtwHHSWwb2OcRB1pT6ATnn3KZaQBv5pQ6p5tBVv9g2tQ415+QFOjkmDLlrYyecorXthjBFTqBWb1DrANNNIdk0Ficf65rTdYGnEWyslpNRTeZams3KvZbOLocpeU2176m2J1mUNudM5Zi+G62Ou7bBpNp/zGZ4NV0ApTbLyWMI0X8MoXSPZfqFofrWsNttlh6PtgRKbRrTo/xqKLW3MORbcuXV3hqxblOgOuH3cpvwIl9N2HKbztYGxqW61a5rDejU2qTmO2tlENiXgf0Z6H/0eeKazkXU2r7UJ07RQe1PMcaOcnJtgfYpkTyn9A3SizGyXMbWh9o4joGm9j870c7CsjoISnZYOi7kfE8O2nsoyromlyj7FFPGnyBX3hZdW9V4Mxf0K0FvV5Q2IAbkxybx0cbkD6Pcx6Am/6E+Pdeuq5JdDXG8s8x8aUhmY8btoGTHLXq3yv58ETFAUg/oXH31rLvPffKvY4lXXTXr7nnP/jzO5xhBnic/uV+1c955i9eQF3k6oDMSWp5JxJLOu/S09ZL/WOqIQtc+Txs/V6loKMbDpwZ1HX/1ebjU2IZQMoSYHp0ixsW9iMqyKVsKynLBBRd0r371q/cdQy7sZk7ZXvnKVy44G5YUn3766duiozgO6sly0PieJZ+R07udsWwl8MQht4GcPs+YDpRb6wfknHNtygCPT8GSng5S9ISEyH+63DWtX2ybWoeqp1SUgeWnAvLWRDB3rQbw8d1UMKXtapgiJ1CrN6h1gOp0eOKEXeY6bj1lRkbYkoA9MoCWbcUORTaSe2JH3bRhH0+M4ieFkSVL6XMbRkZMyWuqfU+1PbUBaXzmM11tIDmSxuA6fYrIYImBEjKufRaXc9KntqX61XQB5AZDQIOz3GaXLf6jhpLMwdR+Yai+Nex2m4Gavym1aUzPya+Emo2CId+Sm6Skn2r93Oc+t6AXvHbEfie5OkSofJJz+tnctG/PBQuGBsalutWuaw3oTPWdtTII1J8BOb77tNNOG/XENcWUPnGKDirYWrOj1vHZ17/+9QV9RR7aq0gB1il9Q81++U076pPPtXOHbH2ojXOT2in9z060s7CsDoKSHZaOC9H3sJrg85///MImtfjmv//7v1/wcTXft+rxJ4jlBTX9ibrWOt7kFcIvfvGLC688X3bZZfNXFOODwRL0ymj0vwBb1mfLOS+F/GFNx0uQrHJjh6E+PTeGaZVdDS3jnanzpSGZjRm3g5Idt+hda3/O36OPPnq+R9ell1667dxFxABJPaADzzxz3GfLOS9Ne/vb++NHHNGfl15z1FF9mgM6DdDyTJgbsAp0Wtrs7pBDDpkrOJu3oVAcY4fxK6+8Ml62b4d7yC73vNfH31ve8pbd8573vPnxkhOIKBlCTI+DZ5SdAYLKce9733veaVL+gw8+eH4sLv+lLpqsU282S6Tshx566Nzg4nI3HLTeiYY4Ws7nL+dT17EReKBBKuWjnJSPcnOMcqWynlI/OagXvehF8w5f1xx11FH7BnLUJ+14UplIB6gfg49nP/vZ8/rFtql1qGm5uSf3lk5xH+SXu1ZP+EhDl7jmrW9967701rarYYqcQK3eYKgDxC6RKyzZ5TnnnLOvDLQDedEuyI/9BzgeJyXqdEhjAMGAmvqozRhMaMM+tQmy45jsf+x7ua15TbXvqbanNmBQoTKhK5IjedFpxkE64JgGkcgbHRy6rlS/IV3IDYYEPalhJSRlYMk2k4UW/1FDSebClH5hqL417HabgZq/KbWpMCS/HIZsdMi35CYpIPUXaivI03yOxdejSlCdmHwgC9l2qmO0S25DePnT0sC4VLfada0BHTDFd9bKkEJPnslj7ARNmNInTtVB7BL7VHuldoQt6GsvObnmoLZDn6Rbsi10K5VDa98AUvtl/KjyYiOxXaba+lAbkx7lP6X/2Yl2TrGMDoKSHZaOC9H3yP6oI+Mv6kW7qWzIIJ2M1nzfqsefIJZXaNG1lvGm2pDz0HXO01gS4pfGoKRzQ+NStUeswxikOkUefKWLYAIY6tNLY5gW2dXQMt5ZZr40JLMx4/aaHbfoXUt/Lvlz/KyzzkrumEMMkAwHdP7yl1l36qlbX8IisHPKKX1Q5iY36Y+Rznnpdb/+9ay73/369JvffNadcEJPfj/mMbPuwQ92QKcJWp45Zgkam5oRHUfRZAwMCM4+++yF6KqA8aB4Mi542GGHzZ/u1gZiOdQMIU2PAxdAOfjU4eGHH77PCPh7//vfv7jjPhFini7JyCHRV2QQd08HiqLGunJf5FwqWw4/+9nP5vfhfsqLdiKSHZ9ogdb6yUHhQIhIa2CnNqUeaYRYILrLkkLdg7rSvqpfbJuhDpUOh2WDGmjh1E8++eT5lwBq1/I+PtFsXfP+979/W3pr25UwVU61soOhDlDLamt2GW2LNqFtaCPZVhyoAGSr5fTwxBNP3PbeNrqC01fHALF5JtE8TYxPA2poyWsZ+55ie2kboC88NdaAhTKih/EJbgry4ilIqmM1Gy3Vb0gXSoMhQIdNuWWPRx555PzpZ6v/KKEmc6G1Xxiqbw273WZCyd+U2lQYI78cajY65FtKkxTAkztsTzKDbCDJALdW/xRpna+55pr5ppUK4JEv+XOfHIYGxqW61a6rjSNKAZ0pvrNWhhS6J3lMWRLf2icuo4PqJ9P2kw3V5JoDEy/afqwfaOkbhJz9co/cGCd37pCtD7Ux6VH+YEr/s+p2TrGsDubuXzsuRN/DhJbV+YxD1UdRT94MQDa5Nq75vlWPP2N5U+T0p6RrY8ebXMeqmXTTXnSeYELJZ5aAzvF1rHTMPyTbZQI65IeOa7NzfIZeuR3q02tjmLGyq6F1vDN1vjQkszHj9iE7btG7sf05AV024OYtnNy+cdsRAyTDAR3417/Ouk99atYdfvhWEOdmN+s/eX7hhds/dZ7yV7+adSef3J/LNbxm9epXz7prrvEeOs1QQGdKFN/YXIx1UAc6LKe9i6FBiGEYixgakB7o0KQp99qIYewGrIOGYUxDDJBsGtcfO1ZKvXKVi1AbexcOVIyD5bR34YCOYbTDAZ069GoCT4xzT8kNY6dhHTQMYxpigGTTuP7YkVKyfIvleaXNm4y9CwcqxsFy2rtwQMcw2uGAThlMntmQtrbk3jB2EtZBwzCmIwZINo3rjx0ppTZVYh8CR/EPLDhQMQ6W096FAzqG0Q4HdMrQZ6LZ1yDud2AYuwHroGEY0xEDJJvG9cfKSsmmTWyOdMQRR8xftYo7gBsHBhyoGAfLae/CAR3DaIcDOtuBDNi49R//8R/nD8iYTDOpNozdgnXQMIzVIAZINo3rj5WVkoDO3e9+93kwhwj+FVdcEU8xDgA4UDEOltPehQM6htEOB3S2gy/N6RPcfD74kksuiacYxo7COmgYhrEZWFlAxzAMwzAMwzAMwzAMw9gdOKBjGIZhGIZhGIZhGIaxYXBAxzAMwzAMwzAMwzAMY8PggI5hGIZhGIZhGIZhGMaGwQEdwzAMwzAMwzAMwzCMDYMDOoZhGIZhGIZhGIZhGBsGB3QMwzAMwzAMwzAMwzA2DA7oGIZhGIZhGIZhGIZhbBgc0DEMwzAMwzAMwzAMw9gwOKBjGIZhGIZhGIZhGIaxYXBAxzAMwzAMwzAMwzAMY8PggI5hGIZhGIZhGIZhGMaGoSGgw6mmaZqmaZqmaZqmaZrmclweDbnEm5umaZqmaZqmaZqmaZrtXB4NucSbT+MZZ8y6G92o/xvTzN3n9dfPuoc9bNbd4haz7lvfWkw3TXOzaJsu89JLZ92jHtX3QfCzn108Zx34y1/OurvcpW9H2jOmm/uPHsOYLfzjH2fdS186625+815vnvGMxXN2m/jBRz961t3kJn2ZHv7wvpzxvCF+5zuz7na36/M555yt4/Jf5G0f1kb7fnMV9Dhwd6lxwSc/Oe74IpdHQy7x5tO4DoMhOcynPnUx7UCjjd7cDWrg94AHzLqrrlpMN1fHdbFpynH00bPuZjcb05ntPK+8ctbd615bk4zHPGbWfe5zi+etAz2oX1+uwximhfa9+49/+cusO+WUXl/ucY9Z9+Qnz7oXvWjxvN3kN74x625zm62g9jJBF9kCTMfTDuj0fS99cCrnGtVH7mXfb1+0e/Q4cGdIHagLdUrtsxS4KR1f5PJoyCXefBrXYTBUCuj86U+z7l3vmnWPeER/TrxuL3Kq0V94Yf+k+9OfXkwzD0xdqnF/deQHYjtMtelVcyc68mX8zstf3vc9b3rTrPvb3xbTd5vf+17fB73xjYtpe3lQv+lchzFMC/eX74XL2Ote4Fe+MutuetO+/1kHO/7zn/uVOegvq2pe85peJ6aWDR9GoIrVR5/4xNZxB3R62dz//rPuznfe4m1v28vklrfcfhyef35/3V72/fZFu0ePA3eGDugkXIfBUCmgo+PQk786kd04JT0weSDq0jryQGyHqTa9CZzqd3idgNcK1kkmtb5wLw/qN521djO3c6q97hW+4Q3rpSu7FWjZrftsGrGDIX2w798ZHmi+yOPA3WUpcFM6vsjl0ZBLvPk0rsNgyAGdLU41+nU0qHXigahL68gDsR2m2vQmcKrfWUeZ1PpCD+rXl7V2M7dzqr3uFa6brqSBljj+XSUd0MnTAZ39xwPNF63jmGdVXMe2LAVuSscXuTwacok3n8Z16OAc0NniVKNfR4NaJx6IurSOPBDbYapNbwKn+p11lEmtL/Sgfn1ZazdzO6fa617huumKAzr7lw7o7D8eaL5oHcc8q+I6tmUpcFM6vsjl0ZBLvHmZ7Ftx1lmz7q537SsCDzts1n31q/UOjn0NLr541h1zTP+Omq693/1m3fve1+cbr0mFxTuZJ5+8de0hh8y6N7+535guXpcy7Xwix04EUTAZzg9/uP0LAve+d/8FgNK+DbHc/OX/0jum5MM7hMhU5aSuyDwno/QevLub3uOyy9qMXoaUY1RY5PaCF8y6gw/eOoffHBsj0xx//ONZ9/Snb9UDoh/p+9upTlxxxaw78sj+f965TL/k0CL3v/511n3ta71upvemDWgLtW2rLrWUoUbOR67oge43pBM5ogPoAu1MnT/60V5/S/XNXcf9XvKSXv95Z5z3puMgheuf9aw+T2w0lgOSzyMf2cvkoov6Y+veDvC66/r6a+NJ5IA/wC/Ec5fxX1NsOvVT8X6Ul3JT/ngviOw/9alZd/jhW76Nv/zPcdLjNen9SsfH+MsWv5NSg5p4DYwDZur9utdt77eQLf4GvxPzTnX62mv7ttKXbGpfz1Kb56h+Mc2bciGP1A7xaTl9EmPbTtXnqGMQf3vBBYvntui9OMafwyljg+iT8IXyj5LHr361eB2cMobBTtHFI47YKmNNBrV+6p/+KX8P8YYbZt0Tnzjrbnzjuq7B6Htzx9Hf1Ner3HwNKean8UfqB6jv4x635VfH2mtLvzW1vOJYXVO5lrGfko1HXzjFp9b0pvSlKtlCLI8oPVN56HdTOTFu40tdMX8FKNI8YNr/Rr1Lzzn99EV/e8IJ2+1Fuk46+xGxL1HM63e/m3UPeUh/zn3uM+uuvnorTX4pHYfS7uhPlG/abtTtS1/q8+P/VXydrDWg0+r7p8wNctwr40A41hfBZe0+ZUt/6HHgzo4DL7981t3pTrPuvveddb/5zWL6c57T5/H2ty+mffCDfZr0M9Xx9Ly0DcccX+TyaMgl3jxPOlp9FhYFOfbYvuIoJUL4h3/o06JDQ1lf+MKtxsE583UArpeikS/5p9dJWGx0yRdM2KDtpJO2D+Jf9apFx5Py97/vOyu+QMC9IL+5P8dJj9dESjHf8pbeeT3oQf31/FU5PvShxeswAHW0qrOuYfMwnGB6fiqnVL63v31/LG7UBL/5zT4v0mkHzpdcUXAMJ2dsOb773X0Z73a3Pj82++N/+O1v5+ule0oPVDfKFfMvkfbDoFJjp52POqo/lhqXdOKd7+w7bsk/HVi0yl0dMffinpwvHePYeef157XoUmsZSkwHT5ILgyJNLk89tR8UxetylLPieq476KCt+mrABJn4pjal657ylFn33OdunSe9ih0512jDyNKAj84b+dGZazCyzu0AsQE2OEzbQuWjDNGpT/VfU21afurss/vrdS3trYEH5eCLUOl1+N3HP35R9rI/jqMvcdAx1JGP9Zdj/U4km4C+/vX9RI76MgF+7GP76zhOOuel7YYckAftoEEscj333O15pzqNPajcMLZzys98pr//gx/cn8tf1YW0NG8G70x6sEO+ypX6esp5ySWL+a9Kn9Ov4VBH8jn00L69Y//dqvct/nzq2CD1ZZyPP+R36hsZhP72t9uvmzqGkS3rmlTuubaq9VMEzMin5Bs1QH3oQxfrHZnzvenxmo7Rpj/96dY1tJt0XfLkfCblt7rVlp2PsdfWfmtKeVXmsboGV2E/JRunbyQIwzlTfWpNb3K6AscGdLTnT4nsQ5bq29SATirjEs88c6vfI2iJ7+Y4m9vH+mksQTr9pY6nfinHKN80oENbyb/AqCdT2BLQqel5zp9MmRuUuFfGgXCML4KrsHuxtT/0OHBnx4H0I8cfnw8Ip8Fgzkn7HOTN2DEt+wET0KHyMuITT9wezSdqh7Kq0aNDe9vb+uMIVh2eiMCPO65PJ/9UqSUs8mXH/jQ6qEHRHe6w2MnnKGcD+R3Ta6RxKQf3I5qtMvL3Pe/Zqht10TU/+EFvTBgQ0WYd5xryoE5EoNPIuuSEAaV5cQ4OgDTO0fFf/7rv9MmLcqSyS+WaM7YaVd+ckqpe5IljTe+Z6gHlonzx+hzJh2twkjEQRISZwY3+l04wWKcjjNH1KXLnCwR0XvEph3SMyLImh3BIl6aUoUSeRmEXsZ7XXNPrHI7yRz9avC5HOSvIk+Zoi8iBMsPvf3/xOjoQBq/IJW33XEdO58CEpKR7dGC040c+sv3+69oOqa2lPgCSN/eIOj/Ffy1j09gtA2MGedhhej/8NX6ba3lqlvow+XXyTv0OREfUIaa+R/crlaPVX6bX5fxOjegcupcrSyrPKBPKg+/hOvQEfVGadIvBBXrPwCP3dKpEtX3sC9O8aSueEP/kJ1tp6OLTntZfy5Ol9LpV6bMGQNyfgW6axpM7vuCi/6fofYs/nzo2kE+iDkxEU12Sb+Q6nsDpeKrrrWOYd7xj1n34w4v6I32ObVXrp+QbsQ89lU7Jk0SuTSevJeZ8b3q8pGO0P/dIJ9D4IfwR+v6LX2y/D2nRx9bstbXfmlJe2KJrq7IfsWTjy/jUmt6UyAQLeTMp1UM1JmbIFEovyJvJ1H//71vHCB5yH66B6WR5SkAnDRSj3//8z/3EkXowYbv1rfs0ZP2FL/TXUHatlMkFMfUFw3RcQn66hrYnL2yTAC4PdziOLqWBeslWaZwXA77LsCWgU9Lzku9vnRvUuNfGgbDmi1Zp91P6Q48Dd34cqD4z2h79Kw8RCFryYOLnP99KYzUPgbG0DAdMQIfOl044LnkU6VSe8IRFoUpo0Tmk1BMpyG8dl7DIN0YFNSglXU8+axya/NUoBXvFK7YbFlQEkCdYaZRXy7w+8IHF/HAcRKTTQY3kdMc7bnfyIrJDhqkzkxKnhpmSfMgvZ2w11gxK9SotoUyX0KZOusR0cPvlLy+mR0onotMUW+Veo9o26syQLq2yDDVqoJNrpxzTjrykD+pg08mErksHYSlzHTlER2JeUHIt+ZLIdWgH2VrOB/A/Nkgnqs+Twin+axmblt0ywMut2sr52SG/DvUULQ62hzrynKxK/jK9bqw+i7WAzpA8YU7n00lLHMCMYWmyl+ZdeqWm9FRzVfoseY05t1XvW/z5MmMD+aRSf6ml1NiCjg3pemkMU6OCILGthvqpkm9UO9ZkkrLke3W81A7SMYJhCmxJprkJU45T7TXXb00pb4uuwVXZj1iy8SE9gyWfOqQ3NaY+K05IlB77IUggTCun0oBZa0AnHfsxVuCVingv2ol6c06qZ2qb6MPVX5CWruKQz861fRogSp/KS7aQPFcZzIGtAZ2xvn/K3KDGvTYOhDVftEq7b+0PoceBi3VY9ThQ5Y82gOypJ6vbYrvI1lKfd8AEdIh0U/D4hCRlroOT0OJyp5Q0NkufolIrv9y7b5BoZy095dDkr0YaNyqDSNmJ9KfpUtYYEUwZBzWSE3KIyp/mqfLrvrllZmJtolNjyaBUhhhNjuQpjxxKTIuUAaWddY3SiZweTpG7SBSbsrBMkfrzFELvrUadqenSMmWokSdSBMjonHCoWmrbko9knQ6KIzW4S+1V16WR7JSljlwDjdgBaIl1fAoF17Ed1OnW7EgTyNT3tfqvZW1adlsKcOfyV7lz9hTvGTvfWkfe4i/T68a0R2RJJmq3mjxhzi6kW0O+rsRcXygq79I739g6gxCenv7hD/2xVeozbaCncTydTwMlKafofYs/X2ZsoPvEAZwoP5amTx3DiAzG2cOBp8csX7/73bcmp9H31fopWHqtSj6TiXFJJilLvnesjqXp6VNhfFOpjxDH2OvYfmtKeVt0bZX2I5Z0ZRmfOqQ3NUqGXB8nJCK2wN4xr3xl//oGMtWqtHidAhSxjul9Ur1jIohNcLzUJppAcw731gokTRbjvdLXrfSAEL3EV3Ms9ZGi+hjSKY8mqJItRL9j2Zal5BX1IeVYPU/r1To3iOmRuf4ucpPGgbDki1Zp91P6Q+hx4GJeqx4HqmzpeE3HaDNe2UIH0/rRLvH+0vHoP9WGsUyl44tcHg25xJsvUgVPlzBH5jo4ObmaopTyHxJW7n4l1iZ/QywpbJqeljPt8Iaoa9LOs0aVP6fAkTWjrzHWR1S9Sg5dlFHUBuriWP0Q1eZxzws4Re4QY+e9VqXRcTzwgf27wizVjDpT06WpZSiRDpDJg65h8MVrIBzTO/xj8oElZ5U7J+2UdQwHnBtQlDpydYAM1PRqAdfz1CE9Jq5rO8iO4nU55jryUv7Rfy1r00N+SuekZcr53Ry5Lg4wSvcrHU/Tc3IpHR9iSSZj5Alzfk3HchOGMYxtm7JkLzE91etV6jNkw2BNiiB1j5seTtH7Fn8+9tycjg75spwfy+UTWWo3Bsd6XQTyNJAJivbxim1Z66egAlXRpniKXXp6n2NJl0rHY3r0nbwCoH0b6GuQb27TcFiz19Z+a0p5x+pPer3KU2OuPjmWdGWMnsGcTx3SmxrTOubsIuqwyARNv9PrJN9Yx/Q+uXFCzCdSepP6a622inlqpUg6IW9py1RfJFs4to1bKHlFfUi5jJ4PMdpyiUO+Mz0n177rNg6EJV/Uoivx2sgp/SGU3pXyj35kzLilNOaBQ+MvnZOWaRmfVbpf6XianpNL6fgQVQe9NqpAInWSvKSbBLZ52BNXJJVso9SGpeOLXB4NucSbL3JMRxMVE8oZDUXEc/kPCSt3vxJzjnIsWxVT98L5MGjTxk45arMnySndRDNHbfoqBU2fckTWjL7GWB9R9Rqa5Aw5/pRj9UOs6cQUuetdbMrL+/bpEwvJL+pMTZemlKFEOkI2IaO+nB/buSaLHEvOKndObil+6bpSRw55qkYZNehmUMbgLD7BW+d20P0ZfGjz5RJzKwxL7RP917I2PeSndA73VDlzfjdHruOJXbpPRel+peNpek4upeNDLMlkjDxhzq/VdHoMY9umHMo7p9er1GcR38zXpbRJMCSwI1lN0fsWfz723JyODvkkpacyzuUTmWs3NihlYMheHXw1KV02X2rLIduH8Qm1JrVxkFlj6f6l4zE95zvxy3xdLJ1UsWQ9vi5Qstcp/daU8o7Vn/T6VdpPTlfS4zU9gzmfmpPNWKqOXB/tQjpMGvvooHu8coQPkK3E6yTfWMf0Pml7lfKJlN5Ef61Xc/S6YRrkSV89Se8/xFRfJFs4Rb5DlLyiPqRcRs/Hzg1inpFDvjM9ZxPGgbDki1Zp91P6Qzhk09GPjBm3lMY8cGj8pXO4514aB2olm/pTVjylr9Khe/pfr0rHVW8lHS+1Yen4IpdHQy7x5ovUDvm1zlNLx1KHxnImBi211Rp6WhWXPw0JKxpCjTlHOZatiql3XtPlnkOUnMa8pgS17DQaV0omJ0xSamXPMdZHVL1qkWOoV65ySykjx+hHyppOTJE7Dq1UVuUXdaamS1PKUKKWMJeW5+rd4JwscpSzqsk697pcycmJtY5c77OrDnTstHfcX2md20HR/LjUdIg1XU3T5b+WtWnaJz49SalBQFoPvatde8qt6+J75iW/WDqepufkUjo+xNLgRu1WkwmUfqev59R0egxj26Ycyjun16vU5xzTzUT5UhhymKL3Lf58zLmlscGQT1J6KuOpYxhdl1syr3f3Y1sO2T7UhFW+UfKIe03UWNKl0vGYnvOdIrJnkqPXaNjUNk0v2euUfmtKecfoj7gT9lOy8WV86hi9KVEy4vpoF9LrnC9M99BJr6MMHIt1TO+TtpdeF+J4nKiL8imcE9tCT9Rla3oNK67iUB8Y7z9EyXaqfIcoeUV9SLmMno+dGwxxr40DYckXrdLup/SHcMimox/xODB/fIh6vQ6y+T76nY7pZEes2OE3q0aj/pV0vNSGpeOLXB4NucSbL1LRL4SV20yMY6RFhyZDrm3yR0dwz3suPpkaElY0hBpzjnIsWxUTJ8k78C1Lp/VOfZRBjXr3M7fpFNQGdLWy5xjrI2qZJGm1TZHpBMbWXZH6mn6krOnEFLnXdEjyizpT06UpZSgxNykRU3vLySJH5VfaXC/dFDR1dCUnJ9Y6cumM5IGTzb3PvM7tALX0u6T3OdZ0NU1P67yMTctuh65N32XXILrmd9T+cZBe8oul42l6Ti6l40PUQCN3Tz31LW0uCNUOadvWdHoMc207Nu+cXq9an3PUhCy9b6vet/jzZcYGQz4p5zunjmFqeslGm6TFthyy/fQ8tSk6WpNFjiVdKh2P6TnfGam9h6KsS3LJyV4s9VtTytuiazthPyUbX8anjtWbHCWjWlvFSSI+UcGeeB1l0PG0jul90vZKgzVMlnJyTjdFjvtE8ZvxAWnk8+IXL95DZdY4lLzipsglSrZT5TtEySvqQ8opej5lblDjXhsHwpIvWrXdt/aHcMimc3X2OHDx+BgSCOSefFWLhQdpO6m/4AHRy16WX5hQ0vFSG5aOL3J5NOQSb75IDZop/POfv71B+a1JfFRMeOaZ/XE68viJPKJq+gQb56VpQ8LKGUKJKn+M9o/hFMVkF3g6NSLD3/3u9vMxMt5Vf/Wrtx/TRpU8KeXzsek1yJjNGHNPKWH8hDiOGuOkTWplz1FyzT0p1NLd3D3TT78+4hGLTr3Emn4woGdjNP0/pBOtctcTgSOP3L5hWyq/2IEM6VJrGUrUk05kzasROh7trSSLSOkL18RPE9J2GtjFCU/JyYm1jhzqSRufhmRgkptcr3M7wPTTl5/73GL5f/jDWfeCF7RN6nL+axmblh8qXXuve/Xp6dceGPDo9YioE1Cfq0SO6Sdtdb9SOXLH0/ScXGp+p0bpQe6eWsJN+eMnPJGPPlvOOeny5iGdHqIG93HSMibv3KAerkqfWZb/xS8uvkJz2WX9prXpQG+K3rf489q5tbHBkE9SeirjqWMYrdBhIJjK7Gtf29pvJrblkO2LGkgzgeJJcu2peY4lXSodj+mpjvHUFb2KbaxPzEa7LNnrlH5rSnlhTX+irq3KfsSc/4bL+NSxepOjZMT10S6UL2R8SRth4xqvKS29Tj4s1jG9T2wvyZg02v+1r81/thydZywZ66BXc0hnI1x+5ybP6ViGPMmbciF7xi5M3tmvKbfhdEm+1OPoo/u9ni69dDF9iJJX1IeUU/R8ytygxr02DoQlXwRXafdT+sMhm875EY8D8205RL3GzPyTFUjpvZEDfTgPiO5///wHFUo6XmrD0vFFLo+GXOLN8ySyrwEMCo3DhPzm6wi8OxgVEzIIkrLIUXDuUUdtOX/S4wBzSFg5Q6hR0VWeUlBulpaXopEppygmyoOTVZ3pnBjMcN+DD+6PxSWUODBtVIlckA9y4pieaqTvZnIPDWjSe3DdQQfNuic9qR+c18qeY/rFAZwzX0LBeSmdJ3ZKP+SQvv7SA46hC3TiMd8So35wPfXQ4Ds1riGdaJV7KnPptPSS38gv14HUdKm1DCWm+UgfJGecsuytJItIOSs6VOkUX7pAvrQjeWHfcZlnycmJQx25Xi3A0SKvXPBlndtB5DOs8lfSe0jUn2PxqxFDuprzX8vYtPzUi17Ur0RIr635WWSvfVRSv6Mn6ZAyxcFLyS+WjqfpObkM+Z0SawEdmOu3hnR+SKeHqKeq5M+eFdzzrW8dl3duUA9Xpc/KH1mjs2lfDOPnhlv1vsWfx3PHjg2GfJLSo4xzuiCfWhrD0JdpEKz6U0782bOf3bdzvM+Q7Yt6gqz6xyXgQyzpUul4TE91TBNSdAmZ0GaaVFP/2KeX7HVKvzWlvDDqT03XVmU/Ys5/i1N96li9yVEyivWG+syx7i1SNvoLbCVeJ32IdUzvE9uL+rD/kvQiR+7FBuyx/FBP0XUutpX7Ch/3IdAjH5Fj7A8kW5iTr3wG6WedtZg+RMkrpw/iVD1vnRvUuBfHgSVfRNqq7b61Pxyy6Zwf8Tgw35ZDTP1HTg/1NS9YCxRHHS+1Yen4IpdHQy7x5mUSaT/55C2BY3QveUkfNc4ppkjkFyd++OFbSkUeLN/iU6BRSeCQsGr3yxEjI9Kt+xMFzi29jpyqmNSJuqV15i/RQTq93DvGHKMzSTs1dnnH+fK0K8pJ9zjssK3zMWCWnGGgKHWt7DmSJ9frE6O0cVzWypcviHbqU4KQwRRPxHL1GmJOP8ibe6Rf2RjSCdgqd774kuo0ThpjRzeQX64DGdKl1jKUiNOlLOpoKSNlpcxjZJEydVbYK+VXnZE1+eY2YSs5OXGoI4d69SUu10y5zu0g8gQGW0wHrGweyoAhPjkbap+S/5pq0/JTDMR46oQ96np+c326QiUlckAe6TXoBIMe6hzPT+9XKkc8nqbn5DLG7+Q4FNCB6A1PzjSAg/hYPt8b203nD+n0EPk8ME/SuBf68v73j8u7NKiHq9BnzmFgFr8kUmvrFr2HY/156dyhscGQT1J6TsZTxjA8seeJnsqHPTKwZwCZa8sh20+p/Spqy91LLOlS6XhMT3XsZz/r24c9EsbYSM1eW/utKeUVc/pT0rVV2I9Y0hVxik/NyWYsJSOuz9lF1GHKRT9Bf4GtxOumBHREjQ9TXUIX8MGx/VLSPnqdCuZWOKZEjsgzHYdyT3xH/GqfZFuSrya0vIqR7hEyljsZ0IGtc4MS9+I4sOaLlL4qu4ct/eGQTZf8iMeB+basMX1Aklvhoz3vSuUq6XipDUvHF7k8GnKJNzdNc6+x5KzMvcGhDtQ0zfWjAjq5AahpmuYq6XHg3qbHgevI5dGQS7y5aZp7je7I9zbdkZvmZlFPFG23pmnuBj0O3Nv0OHAduTwacok3N01zr9Ed+d6mO3LT3CxqU+TaKwimaZqroseBe5seB64jl0dDLvHmpmnuNboj39t0R26am0P2mWHTSfZy4EssMd00TXPV9Dhwb9PjwHXk8mjIJd7cNM29Rnfke5vuyE1z/ckXO9i8XZtSE9SJXxwxTdPcCXocuLfpceA6cnk05BJvbprmXqM78r1Nd+Smuf7k88IEcvh076tf7VetTNPcPXocuLfpceA6cnk05BJvbpqmaZqmaZqmaZqmabZzeTTkEm9umqZpmqZpmqZpmqZptnN5NOQSb26apmmapmmapmmapmm2c3k05BJvbpqmaZqmaZqmaZqmabZzeTTkEm9umqZpmqZpmqZpmqZptnN5NOQSb26apmmapmmapmmapmm2c3k05BJvbpqmaZqmaZqmaZqmabZzeTTkEm9umqZpmqZpmqZpmqZptnN5NOQSb26apmmapmmapmmapmm2c3k05BJvbpqmaZqmaZqmaZqmabZzeTTkEm9umqZpmqZpmqZpmqZptnN5NOQSb26apmmapmmapmmapmm2c3k05BJvbpqmaZqmaZqmaZqmabZzeTTkEm9umqZpmqZpmqZpmqZptnN5NOQSb24eSHzqU2fdLW4x6771rXHHTXNZolPoFjoW00zTNKfwL3+ZdW9+86y7/e1n3Y1uNOse9ahZ98c/Lp63LvzqV2fdQx7Sl/W2t5113/nO4jlTaR9rHkjcNNs3p9HzEnPzuDwacok3N/cHr79+1h199Ky72c1m3Sc/uZi+Uyw5yNJx01yWnmysP5lc3u52s+4BD5h1V121mH4gcH/5ZLOdf/vbrHvd6/rJHJO6Jz951p10Ut+G8dx14De+Metuc5tZd5ObzLrHPGbWHXvstIBOyU4PdB/7y1/OurvcpdeHEg9U2exv4kvxqfjWVdjnptn+brHkGzaZnpeYm8fl0ZBLvPn+5fe+1xvtG9+4mLbprNVtf00eSg6ydNzcP/zd72bda1876044oX2gcuGF/ROrT396MW0n+Kc/zbp3vWvWPeIR/cA6ph/ok41N4F4cDLZyf/lkuNs2u+n86U9n3R3uMOvufe9Z94tfbE8b8ke7zRtumHXHHz/rbnzjWfepTy2mt7Bkpwe6j00DOne846y7850X+fznL15n7jxXHdCp2f5eZ21OUfINm8xNmZfU2mVV3I17mKvg8mjIJd58//KMM/pOmL8xbdO5jnUrOcjScXP/UAP0hz2sfRBEW6J3uzUp1WAa5iZQB/pkwzSHuNs2u+n8zGfKqy6G/NFu8+qrZ93d776z5TnQfey6tbm5c6zZ/l7nOs4pdpKbMi/ZjXbZjXuYq+DyaMgl3nz/ci8r6TrWreQgS8fN/UMHdEzzwOFu2+ymEzmVJnVD/mi3uRvlOdB97G7I2FwP1mx/r3Md5xQ7yU2Zl+xGu+zGPcxVcHk05BJvvn+5l5V0HetWcpCl4+b+oQM6pnngcLdtdtNZm9QN+aPd5m6U50D3sbshY3M9WLP9vc51nFPsJDdlXrIb7bIb9zBXweXRkEu8eZ7sIo/jPOKI/v1XFIkN/R796Fn3wx9uP5cJJxPPkuHl0qWcOUaF/etf+3fPDz+8L4PKwv8cJz3eM3UEfF3isMO2rnvOc2bdddf1511xRb9JofLlvVyWdLLxWszzt7/tN2O7xz22yspGhy95yVZ+LXWrOSv2AXjf+2bd/e63de0tbznrTjll1l1zzdZ5Le1Uu2d6nLo/61mL5U3JvgBPfGK/L8BnP7uYniP5XnzxrDvmmO1lpR05np67bJtTd2SQtus55yy2qwaC6Oe11866j360PzeV46WXLt5L9WHvC+kWPOSQWXfWWX37xfPhULtqYB71Bg4FdzQpzDFOFNFXdPmud91ejqc/fdb9+MeLeeco2cV7wXRgnU429HUK5MR5yJh9gkrvfNPOaZtAfnMspwMlyiaRA/c6+eQtHaQslImyxesgssLGsXWVOdrX5ZfPujvdadbd976z7je/WcwDn8O1b3/7YtoHP9inUYaYFpnWI5aL+lCvnCzT6/B5Rx7Z/6+vg6R2kOpY2nac99KXbt3vPveZdRdc0NsBbfHOd261K2V5xjP6vaBiWTj3a1/r/QA6p3bFjrCnaKNpGbAf6kwb8KUgfBDXrspP5fzjVB8h/5D6MOTyuMdt2cZYmx3b9yxTXjHnGw4+eNa9/OWLfi3aUk0HaxxbP03mcsSvjvFHU8qe6sU3v9nrPteg4/FcseYf08ko93vBC7ZsB5b6kTF2GsuR63chfRAyS+/x/e/3cqd+vCoW84LYEfaEXWFfOh79Uc5PijWbnrJZ9JSATotcxCE/Gs8vXYv9peOTJzxhS+/wmehV2j/hW0v93bJjpZI+Txnf5FjSzdY+uWb7qa+c0q5D+pjaHb4qHcOwMfOHP9zLmXszf0j9LfMLdCXeE461/TFzipJvEEnnXvhyXctvjuVsZtl+JMexfl5M9TTqSO062GoXuXnqUPqYdhmi6pWOhdBVxlat98j13bVxfWxj9PrmN++v03ipdbwm4vdTG6S9Xv/6fg+smq+O7Vzrl9eTy6Mhl3jzPKVECJMvMjDhfNCDthrmkku2zs0pespcOk6PPB/84D5P/vI/JE3XomSPf3x/DsZ41FH9OfyVkZ566uJkTI7gRS/qFRSnysRRyoqioaRsIoZzYZd81Y98zzsvXwfScbjkD/XZRDZglBMdW7fc5AGiuPq8qeTPudw3nt/STrV7xuMXXdTnWeocNIF96EP7NorpkbTPC1/YlwtSP8qqeqaOadk2f8tb+o4YOaTygB/60PZr5NAYmJ1++qw76KBeV9K2ZUNFnFCpPmkb6ZrcBoBj2pWO/7nPnXWPfWw/aEY/ccbUA2f45z9vzzPlu9/dn3e3u23ppPTu29/eOo/f1Ek6gl2g/+qsKdu55y7mH/n73/cTfL4ywTWQ39yP46RzngZL3Ic0bJDfqT0yoIwOO9UDlTO9hqBjOqGoUXbypjfNunvda8vmZdPwVa9a7JxSWSGf9Brqq4GkNj696U1n3Ve+sj0PBuhqd85Jy8z9aN+cTeaY1oNOX3KRHklWfFUndx0TgzSYKPsuDQbVdvjLhz887yvxabSFbCdto9QvihqYp7YtmeZ8r8rwlKf0tqGyc+xf/3W1fir6QTjFR9Cu+hKL9J3zGWjd6lZb+Y+x2Za+Z2p5xZxvgPyOAzAGxciKc+XPpRf4rbET85b6UT7uwzHSkJvk9eUvj/NHU8ouvXjve/t06SDHY33Emn+k3TknDfrIv6T2Qz+X+oshO43lKfW79D2Uh2MEI2Qb8mMcj3ao9FyAdKyfjOXN2fQYPxjZGtBplYs45EfjfXLXohPoENekek5+//Zv/aa2HCMt7Z/OPHMxz2XHSiV9njK+KbGkm619cs325SuntuuQPkq/6Eewz1z7vO1t/Ya1yD22bW5802L7Y+YUJd8AU3+X+liNGdABAnu58k3pR3Js8fOi9PTss/sy6jr1SVyH7lx55fbrptiFylfyQbn0Me1So75+yLXkzXWHHtqXUXOisffI9d1D4/pUZzReEeWzW8drkIfnkrN0W7J/5CP7Ns/56tZ+eT25PBpyiTfP8x3v2Io66xiO9T3v6YXLE2cdzyl6ylq6nHqMNOp+cq7HHbf4tJfJryZKONM0DaOXEqSTGwwfB8CARCsjZNTpIJzoczp5pg5EsuPTJqLo+oLF+edvT6vVTWWMMuE+6rD4KkMapactPvax7WVoaafSPXPHcYh0XjgBgjvpuZCVBuRPhxvTcmQwIiONTyu++93eAfB7FW1OmXmaoIFAKg+uTfOUQ6P96HR/8pOtNLUt1/F0Or0X9+Y4TirNj2twXrF8re2qAUaucx6i5BAH0fDXv+4HjjhWBlJRb3DO3Be7+cEPFq/PcWgwrbogY4ICqbz4zeoyypuuXkn1AHmm8uIadQ5f+MLi/XKULXLNa16zvd48CUFn+HJGOjhJZZXqEyQYTKdJOudxTDYR7R37YZDGgIgJ/c9/vpXGah5W9US9LFH1oEOMeoQfwx5Jp9PMPeHj6RSDstLgMupb2nY8vc35StKRXcnPRr/I/1wbn5SqHaLvVRkYGDCY0aog0lbtp6IfhFN8RO1LLKRFO6nZbGvfM6W8EJ3g/Jxv4DqCENJ1fAM+AhvAFnQe7YKtkAdBwNjGObbWD2qQidxifkP+aErZuQ82zGT7mc8sPxXOsVYeVsHg56I9sloTn8CDiR/9aDGvkp1GeaifyvW7+Bv6WNIpg2zqIx/pjxFoTn0ezAVIW/1kWt6cTU9hTcY5TpELHPKjNerav/u7rfEORI70i6TR3vxOAw6aHMXVn8uOlWr63Dq+qbGkm1P6ZFiz/antOqSPqU/9h3/Itw/typyi1LZxdW6r7cPanKLkG+TvqB/ju7ReyBxfT/mjjU7tR0qc4udpY44z3ol9EiviTjyxLwMPlFSvqXZRm6cOpdfapcTa1w+xR75qNfYeU8f1amOCo+g+D7zjyqXW8Vrav8b2RIcYF1KP6Kun9MvryeXRkEu8eRs1UE2dRk3Rh9JrSoozw6nVlv9qJUl8AqsBcm4gr3ve856LzpT/GbDwVYrSPSP1ykSsQ61uMDd50GCKJbjxqUoLc+0Ec/csHWf5XU6GGBQTRgyPJdrx3pEaBPI50bRTyHEVbf6KVywODrVKgqfjaZRXDo38eMIb78VqC1Zd0ClrSbUm4aX6aNl66uha23WnAjqa4KYdYKSCArHdSxwaTKsuJX2R/aQDNOkBbcYy3XiNlv3HgGWJssWc/NOn0ukTD8kqp0/8jwzTQYjKHDs47o3+8+QwDlqkX2MHRapHSS9KAQ5dFwdtYmkwqLaj/Nhxeg2BKS3tzfk4BumkveENi2k5ykajHqkMpQDeqvwUzPnBKT5CZY66UGLNZmvM9T1Tygtl9zl9j9QrhB/4wGKa5J6bkLQyVz9Ym9QN+aMpZVf7TBlQDpWnRHxC1IkhO03loX6qpv/qm1P7pt+l/83ZfO710FY/CYdsupWSC+XIMbXpqXKBQ360Rl0bX1WDTLhiOcU//KF/6BHHLqsYK+X0ecr4psacbsIpfTIs2f4y7Tqkj6lPjQ8ONL+hTAS7YtuyKkJpMd8Sc7YPa3OKkm+Qvyu90q1Vd5zDODXm19qPTGHJz0tPc3KFufacahe1eepQeq1dSlR+sa8psXaPqeP61G+ODdCKpfHakL6hS8i+dF1Lv7yeXB4NucSbl4mT5R05onMs3yLIQUMg9N0I6MjIa5Md5R07OxxB7vUHqA6B5c9R+dV5RmUTmVx+/OOz7sUv7h0ZnR555epQqxuMkwfKwlMxBj9j9nsQx7ZT7p6147mncVAdem5gkqMGKzVnIy7b5nHgKHJf2jumy6HFp1+iAnxpujqy3BNMGB3dlHbVACO23xiWJocaJJXsQtS9x3bUQxOWocktS315WpjaY6mDF0sByxJli/Epmajgg9Ilq2gTKWMZpZfpU0UdIy+WxGI3qW5zbdTJGlWPWpBEdaF88bqSXZUGg2q7+KoYVN1ou7hcG2ogm2tDngKRN0up0VeeDun97KhHKkNpFdOq/BTM+cEpPiJ9YkZ7DNlRyWZTju17ppRXbVmbDInyb3G1WcrShKTGsfWDpUkdrPmjqWVX+6Q2NZa18oi0CZMpBrXosV5DiOUYstNUHuqncrYrqm/iPpo4KwjDsXSClxtUT/GTcMimWym5cB/0hlcPUt7//ltPvKfKBQ750Rp1bU6HJA/GnoxB0zSNXaKMlx0rlcrSOr6J6ZE53YStfbJYsv1l2nVIH6VfpXTJM77SAjW+ieUVx9o+rM0pcr5BbZVb6ZRSY/Q06DSlHxnDFj8vucagnijbSMe0U+2iNk8dSq+1S4mUXSuJWO0Xg+eRpXssM65XGw/px9jxmubPtfxy/eHUfnk9uTwacok3zxMDuvWttwyNThxno/fBU6dRU/Sh9JKSpmm5TiclChaVOTcwF0sdAlRZY2dF0IQNuCQPiCPi3Vy9ShPrUKsbjGXMTQiH2NJOuXvWjqvzi7IlwtsSnBjbji3ntra50qNDyHWCKXPOR/ozRF0zpV3lfEvlqjFXTzi2HEODl8icjFKWBnQxPa2r9GCIY+Wj/KJMYrpsVbKK98sxtW/lo/eKFVRAn5WnykxwiyBX7UlS5FA90nNy5coNOGHJDmptV/PrUHYS/R+BrXRTRAYGD3xgv38BS26jHqkMuQA8XJWfgjkfUpJNTI/lZkmy9qcgsEPeuY0Jdd9Su7b2PVPK22LzOjctT4m5+kS21g/W+vBc/WJaLGeOMaBTClwOsVYeApA8hNE90ROWv3NMeyaM6a9ydioZ1SY2MNfnanKcBkNzAdKpfnLIpltZk3HkMnIZ8qM11nx3rg9MmfNLufLlWBorlfS5dXwTr4/M6SasySNNH2v7y7TrkD6W7E6s+e9S/VttH5ZkAnNlHOvXVcY0GJbLL3e/sXowxc/n9D4yyj7XvjlGuxgaz9TSa+1S469+tfVKHqSdchs21+6hck0Z1+tYLpAstozXcveIzOmNjqW6UWK0ifXj8mjIJd58kWykS8fNk41PfGL7csickdcUfSi9pKRp2lDnmeucao6g1CFAlTU6Ke0Bo682pE5f+cU61OoGYxl1b6Le8VWwHFvbKXfPoePx1Ra90jFlEjrUji3ntra50qNDKMkppqf6oPZONyfLURtxtrYrHBrg1ZirJxxbjjFOPnd+tBmxNKCJ6WldpQfpJrE5Dm0ULSq/KJOYLluVrAiKaiPTEtOnR5oIyV54upg+0Wawqf+1yqj0JDTHoXqk56SreIauK9lBre1qfh3m/KL2aeEaNhZNV66UfG+tDOIq/BTM+ZCSbGJ6LDdkVQNfVkkHRLx6F18xKNksbO17ppS3xeZ1LoM5bdheYroZe4mt9UuP53QiV7+Y1lr2nF6MZak8TJzYmJN6cL/ok3M2W2rbnI1IRqx0iGXK3Sftc2U/6SSB82KAdKqfzJV3GZZknOMycsm1yVjWrs31gSlz+pcrX46tY6XW8U28PrLU1jV5pOljbX+Zdi2VUSzZnVjz37m8p9h+ejzKBObKONavq4xpQCuXX+5+Y2wOTvHzNT1Nz+Fa+Zdc++YY7WJoPFNLr7XLEJEDX2Vjs27ygARESjoR77HMuH6ojVvHa0P5pefkrmvtl9eTy6Mhl3jzRTIRQHHiUkeo9xPTBqsp+lB6SUmh3gusRdyVd3y3ruYISh1Cml+qbCgxUdR4D7G0GWqtbjCWUU/s49OUElvbKXfPoeMa2GlZJa+GMKiL+1XUOKYdW86d0uZKJ+8xA+SYnuqDZDD2nejWdoXqYEvlqjFXTzi2HLp36RWpyJyMcvnl7C1NT+sqPai9WtTC0gAppstWJau4VH2IWjoK2dyQJ16pHKU7PD3iN0/l0tcahqhylp4+lZaUD9W/ZAe1tqv5dZgbpFEmjuX2PtIeCFGPamUQV+GnYM6HlGQT02O5U9IuDER4HZb66ytH6X1z7TOl75lSXsl+6Clfem7LPnMlTqkfrPXhufqJU8ue04uxLJWH+1OO0isL2lNgTH+VsxHZwJhXUHKvfWpvKtpA9hVfa5zqJ3PlXYYlGee4jFyG/GiNtWtzfWDKnP7t1FipdXwzxFJb1+SRpo+1/WXatVRGsWR3Ysl/l/KeYvuwJBOYK+NYv65XrtJ+OZdf7n5jbG6qn0dmtfGq9Dv1P1PtYmg8U0uvtUsLeR2NoBp58aXbuBdj7h7LjOuH2rh1vCa9rgWX9KpebvzR2i+vJ5dHQy7x5ousOSc2LCItVQCcpJQw9wkzLdVtNQRdV3vKKiWNX3WpdVilDgHKaFNlqzkunrSyqVuuDrW6wVwZdc2Y/WZa26l0z9pxSJn0ZI5yjdlnIaXaqNaO4k61udKjvIYcWq7ttWdHrYyRLe0KVcdSuWrM1VPUIL1WDpW1tKlZZE5GKXMDmlx6WldtWhfbeCpVp5xM0vTUVrWJ3Fg5iHR+1Ied+RlIpddrI2EGlS972fBAK1LlzG0kCdnEkmXM6SaB6XWl+pfsoNZ2tQEOlJ9NZZqTs1jaLK9WhpTL+imY8yEl2cT0WO4cta9QrEvJZmt5l/qeKeVNA4FD+s5kKffp6inMlUUs1Q/W+vBanlPLntOLsSyVJ+f3RAb2BIWjTpTaNmcj2ty4ZgcMrvk4RK4vSze/ZaNYJgyxHeAUP5kr7zIsyTjHZeQy5EdrrF1b0wWY07+dGitNGd/UWGrrmjzS9KhzJdtfpl1LZRRLdieW/Hcp71p7l2wflmQCc2XEr2s/rJJ94hMJ3kWfmMsvd78xNlc7t+bnJdfchutQY4Y00DzVLnZqHtvKXMAD1u4xdVw/1Ma1e+bGawoucU3pQaXmpul1U/vl9eTyaMgl3nyRWvnBAC+dNPApMe0JEBVAUVGWc6XvzvGbTx+SljMEOefcxpXpssTa5+d4yh0NsNZhlToEqElKqmyKLqNsTNJ0Lu85sryT++eUvlY3mCujlrjlPj/Hb+6vzf2mtFPunrXjUI4Mp0sUtfYEJMehduSz5TL+oXOntrnSyXfMADmmp/qAw9RmZnQA8ZOfdBBsUJ0+AWpp1/S+cWI+hnLCudUJtXJQL33ekHNKEfZI2UzuCxAwN6DJpadtgAz5Agf1eOUrF4M6yPz008c/FZ4yeEw/o/i5zy12lCwb5jOcUW/0+g+vi/HkKNVHTZwZVLJR59hVUKLKmWu/1NfGAdBQ/Ut2UGs7tXvJ5nIBHT3xOfLI7U/6CUShc8gtDmRqZUi5rJ+COR9Skk1MT8vNUz/8WtSZ97wnb5slm53S90wpL9QrvNQ/ft4W+3vHO7YGyEzwuTdP1Khnmj/XsX/Qq1+9eO/IKfWDY/rwkj+aUvacXoxlSd56mkm+LLnXcWStCVa02VLblmxErznQZ9Y+48x5aRrUIJun2NhUaaI8xU+WyitSZz4Dje+P+eVYknGJU+Uy5EdrrF2b6wNT5vRvp8ZKU8Y3NZbauiaPNL3F9qe2a6mMYsnuxNzYspb3FNuHtTlFqYw1v55+tpzxSnpdKb+YPsbmpvp5yTVX9vQT2OmXkZaxi52Yx5bI64pf/OLig7nLLus3xo6rIWv3mDquH2rjKeM1HlpxnK1A4h5d6dw0XjelX15PLo+GXOLNF3nllVuGcsghvVFhADTSs5/dTzKjAuirHlzDe4ls7AX5zQ7evI+bMwQ9DeC6Bz2ov+atb91KR4n0biGNjVHxHp0i2BDnHDv9WodV6xA0GIzKds45W06He3MtssFR8i4xx6MzGqpbqYwYgZSeDajYNIxzMfL0/CntVLpn6TjUwE7yLkVea4zteOihfTsilyi7eO4q2lzpXDtmgBzToz5QRm1mlpaRY/rCWNyZf2y7wlTmpDOwoqPPlTFSq1u4lnphfwy0c+VAf9FL6TPHSIuOeIh6SivbZ7moJn+5AU3K0mA21W/qg7yQMbqDzFuW+U8dPKZ2LxuD+lx37ktg6ee8Y52gvsIAS0/NSlQ58Tm0ncqEbNTm2E7a+abXlepfsoNa28lXRt0V5WejbctupHvYDjLmN4OYaGu1MqRchZ/K+ZCSbGJ6Wm7V/eCD+3phu3wZgmPoNLqd5lGz2da+Z0p5RQZjKofKrn48PR/fy6ROsqZu1JFzuY5jY1/ZaK0frPXhsOaPppQ9pxdjWZJ3Wg71IZSBeqMj+DrSxvRXJRthsqDJjeRLvrI5jpEeJxUiNsR4AuYmEmKrnyyVV+Q41yGHMZ8HL8m4xKlyGfKjNdauLfWBYkn/dmqsNGV8U2KprWvySNNbbH9qu5bKKJbsTpS+5uqSy3uK7cPanKJWxtSvyz51P44xd4t9Ui2/NH2szU3x89LTF72oXyEoXz3UnlPtYqfmsTlKfrQLdpXqKUReLfeYMq4fauMp47WcDWr8Qz/yvOflVyBN6ZfXk8ujIZd48zwvvbR/eiyjQbgoGJOVkgKwY/fJJ285DhSAiBp7SdQG/l/6Uh/t4xquff/7t6drY0kZGmRCTEPz9CfmB2sdVq1D0CQlp2zUX4Ny5IJ8kFNu4iLW6lYrI/fmqZYUGVJ/5JCuVmhtp9I9S8dFvWNbW8Y4xFw7Uj/qGTuE3LnLtLnSyWfMADmmR32AlPGss7YGrSojK0t46hI7C+U3pl0h9qSlqPDEE8et5uC+PAXR5y+xQ5ZHDpWDevBEND6RG0MG6zzVkx4S0WfpMGm5AU3K2mCWsvBlhLScPDFmlUvpi0E5Th08QvSNNpVfg2xyS+eTk1UaWIgrLqD2t6rpaolpPSgXck7bD32MehSvi2mwZAe1tpsS0IGxn2DAQWALfcn53loZIpf1UzkfUpJNTE/L/bOf9TpKO6ftU7Kvms229j1TypsSu6Ls+iwp9zv88MWvb1CuCy/s02T3/GXlWc6fldhaP1jrw2HNH+meLWXP6cVY1uTN4Bfd16Abm8A2sJGczZbatmYjtBltl9aV+/C6ATLI9VOiXmMZsxS+xU/WyguZgLJChz6qVj6xJuMSp8gl1yZjWbu21gfCmv7txFhJ+baOb3IstXVNHml6q+1PaddSGcWS3Ym5seVQ3q22L5bmFENljH4dojN8ijr6uzH5tdrcFD8vPSUQwQqNVMf5TZ+Z9kkpp9gFjOOTVc1jIykfQaX4Bala+YbuQTu0jOuH2hhGeQyN16DeOlBbw8MO6+1Pc9Pcda398npyeTTkEm9umsPURCk3QTVNc3dYG+iZ9lOmaZqmaZrrSAWR9sYGyDkuj4Zc4s1Ns06tOChFpk3T3B06oFOm/ZRpmqZpmuZ6ki9x8fpc6/6Rm8Pl0ZBLvLlp1qnNRuOXEkzT3F06oFOm/ZRpmqZpmub6kVeq9NW1+Hrd3uHyaMgl3tw0y+Q9Xzbr4j1GdiGP6aZp7h4d0MnTfso0TdM0TXP/kQ+V8AXadM86yBjtX/6lH6PxulX8Ct3e4fJoyCXe3DQXyRdW2EhSG3YxWYo7yZumubt0QGc77adM0zRN0zT3P7UJOOMxNqTmy1R8hVWbcbOK+vzzF6/bO1weDbnEm5vmIvkkJcbH5/rY4d2vMJjm/qcDOttpP2Wapmmaprn/yQO1j32s/6R5+sVDvo6V+6Lx3uPyaMgl3tw0TdM0TdM0TdM0TdNs5/JoyCXe3DRN0zRN0zRN0zRN02zn8mjIJd7cNE3TNE3TNE3TNE3TbOfyaMgl3tw0TdM0TdM0TdM0TdNs5/JoyCXe3DRN0zRN0zRN0zRN02zn8mjIJd7cNE3TNE3TNE3TNE3TbOfyaMgl3tw0TdM0TdM0TdM0TdNs5/JoyCXe3DRN0zRN0zRN0zRN02zn8mjIJd7cNE3TNE3TNE3TNE3TbOfyaMgl3tw0TdM0TdM0TdM0TdNs5/JoyCXe3DRN0zRN0zRN0zRN02zn8mjIJd7cNE3TNE3TNE3TNE3TbOfyaMgl3tw0TdM0TdM0TdM0TdNs5/JoyCXe3DRN0zRN0zRN0zRN02zn8mjIJd7cNE3TNE3TNE3TNE3TbOfyaMgl3nx9eMYZs+5GN+r/xrR14Sc/2ZfxqU9dTDNN0zT3Br/+pVn3uP/PrHvDKxfT1oW/vWbW/dPjevI7ppumaZqmaZq7weXRkEu8+frQAR1zDL/znVl3u9vNugc8YNZdddViurl/eMVPZt1THznrHn/krPvWVxfT9zr/3/931n374ln3qufMuhMf0QcD4H86Zta99YxZ97vfLF5jri8d0DFN0zRN0zTHcXk05BJvvj50QMcUL7xw1j3qUbPu059eTHNAZz35gbdtBTHe+OpZ97e/LZ6zV/nnf+/rfNz/t6//Ux816/7psbPu6Y/eOkaAQOf/z/856z537qx75bM8EV9XOqBjmqZpmqZpjuPyaMgl3nx96ICOKSJf5Iy8Y5q5fvzj9bPuxSfNulOPm3WnPWHWnfLYWferny+et1f5sff0k///8oJZd83V29MI9vzf/zrrLvn61jFPxNefDuiYpmmapmma47g8GnKJN18fOqBjig7obBZ5xYpXrd52xqx775v7ifAnP7J43l7k9dfNuhc+bdad9H/Mul+NXDHmifj60wEd0zRN0zRNcxyXR0Mu8ebrQwd0TNEBnc0hr1bxuhEBHVah/Og7s+5JD+/3kuHVonj+XuOUSfWUa8zdpQM6pmmapmma5jguj4Zc4s3zZEJ9i1vMum99a9Z985uz7j736SfYz3jG1jlM5Njr5LDD+jR4yCGz7qyzZt2f/rSYJ+Q46Xe969Y1XP/Vr+YDOr/85ay7y1168jvmV0qn3JSfeuielI38b3azWXfyybPuV79azA/+9a+z7qMfnXX3u99WGe9971l3zjmz7rzz8gEdrvna12bdMcfMulvecnvdkFHcT2SZ8pHXxRf39+JcrrnJTWbd4Yf3x7///Vl3m9v0Mv554bWXiy7qr33kI8ttFYl8X/CCWXfwwVv14zfHcm2T1lEyRY412SiQk6OCO2rzhz1s1l1//eJ9lylnS1tI/5E78tf5j3tc/j5jmdM/dOq00xbrO8UGr7tu1r3kJb2OcD5lf/SjZ90Pf7h47hjyahWvWLFKhdUqf/r3WffyU/ugDsGdeP5lP5x1/2eyaXCObCR81eVbeXE+18W8aulMxHX80u/Pumc9sc/7La/ZOgf5fe9bs+4lJ8264w/v008+dtad9+HxwSiV4Qn/+6z76vmL6Sk1AY/1hblJOf+/6w29PFLZcCyeCyVb6k75//VNfbnY0+enl/bn3HBDH6x42Smz7kn/vz5Pzvnn5826K//HYp6QvJDJM47r9wRCVi/7p/58vW7G33jdKuQLdQ/KffUv+ntTDoKGf070/N+v7+vM5txj6sVG1l/+/Kx7zpP78pHns07o2/Gi/6fPIwZ0avWtpaf6SHkoF+VL7xn7CVHnq72o33vOmnW/uLIc0PnDtbPuY++ddc98/JbsuQ75IKd4j2XKR37cS/ohPWW13h/+0LcTx5FpvBbqlU3Kx+bqMd00TdM0TXO9uTwacok3z1MBnfe+t9+AVpNFBTL+8pdZ98IXbk1ijz22T7v97ftjRx+9OPm89tp+o9t4DRNQ7vUP/9CnrTKgc8IJs+6UU2bdzW/e/4b85j5MxH/72+35Ua9TT92a6B511Kw76aQ+EHHjG/dlTuUgauWOruGeBBx0jEBQev4y5ZPc4UMe0l/PX8mOCdsTn9j/H+8rvupVffpHRr4W86lP9eXlGtqL+qvtOIaOEPhLr0nriEwPOmhLNiovfN3rtiYK7353n363u/Vpj3hE/z/89rf7c2oBnWXLObYtKC/lJk3ncx+CaLe6VZ9neo+xpH0pA/liS+RJ3gSkoo5PsUFkeOc79+noNLotPSWPKSuiPvOxfgLHpsg6xutWHGNCF89nQv72/zbr3vxftvOs/6vfSJiJ37nv78+tBWyG0jVBPf+8fnNiBUQ0QcdO3v0v/f2YKP+XF/ZpOvfVz+3zj/fM8YJP9flwv//nM32gIJ4Dr/9DPxE/8xV9wAvym/pznHSde/GFW4EvgiCUDfKbY5Tzsh9sz39fQOc/z7p3/LetOqfyUcBBdebez39KX34m1P/jR9vzZLL9itO2X6NycD4T/1wAY5XyVZk/e24ffFG9aHvl8T9+vKU/BCDe9M99OsEM7p9uSq3ynf2a/nwCF694Zn8N17LajPKm+hLLEus7lC59/ORH+wAbMk9lTznRnZjfV7/Ylz+tF2WlzC89pZdnDOjILqLuSPZsxh1lP7V8kjv5og+ve1lPfqtcX/psn0dps3St6nv96bPurzcsppumaZqmaa43l0dDLvHmeTIxZKLKl4Se+cz+qX6a/ra39ZNAJui/+93WcVYFMEkkjXN0nEHcc5/bHz/xxFn3xz9upbEi4U1v2lrlsMqADkGYhz98exmvuWYroPDBD27PT/U68sjtqzIoP8ERBQtiQOf88/sJflwVccEF/USZFRB//vPy5TvzzP446VdcsT3tu9/tVxHxm0AN5xHYYeKSnveb38y6+9531t3pTrPu8su3p+X4gx/0gRDKiwzSAXnadqwo+fWvt9JUR3jEEYvlRWasEoGsKkrTtFInF2AoBXSWLWdLW/z0p7PuDnfogyK/+MX28pGW09Ux/MpXZt1Nb9oHstK6URfaNz3WaoPUmbojA1YApfJhdRntEGUzRFZZ8PQ9rsb52U9n3dOO7lfFjP1cNysAmKSe8dItna0FbIbS5xPUf5h1z/0/Z93Zr11clfDpj/WTTCbHf0j8G3UiuEQa58R75ogsCWJRfia2rIq46IJyYGfoVRlWKTD5pl6sakjbijz/+4f6exHc+H0SaFRAh4n/C57af0Y9TqA/c85i0IlzvvDf+zq//fXbjyswdOZ/7jd4Tsvx0X/dWpERAxirlK+CJAQwchtPIwNkgUwu/Nz2Ov/wO31wIcpK5WO1T6qjXIvMFUxbZUBHwa20jKnstcpN10gPKH+6qTYkMMr53CvqEXbBKq64MgnZv/bFW69HLlu+31zd2zhyRydTneJen/9EL3Ot4ittlo7OkT+Bn5hmmqZpmqa5/lweDbnEm+epCTWv9cQghQICd7zjrPtJZnm0XvlJgxg/+tGsu+1t+1e3rg6Dcchqgyc8YfUBnVIZmZxzLya+OqZ65QIMkIHtK16RD+iUyESbgMAqykfwhSBM6ZqUyBhZ54I2n/1sH7x41rMWJ3s5Puc5fVnenFltAdMVQemKnzSgU1qxopVC/E2PTwnoLFvOklxzbaFrYqBuWWqlF3WJaSmn2ODb397njQ7Hdud/9AG9INAW8ytRT9bTlRKQp+w8bR87Sbv6l/3XsSC/dbwWsBlKZ4LKZPf/ev7i6z3X/m7WPedJ/UbGv/jZYr5MpLX6JF5bIxNoVj8oyEFgJxdUGQroMMHl+tLG0iX5KqDDBPvfLlq8rkY2dEYeaVsOBeawKQJwMYCxavkqSBKDMqJWib3/7EVZ8z+bdadBDJWv9IoP15DXqgM6pTJqY+2n/GO/4kXHh/Tge//W219Jj3K84NOrKx+r8krXpFQbRH2F6BX6VdIx0zRN0zTN9efyaMgl3jxPTajjChGoVQRPf3p+EJcLYpx7bp/fy1++eL64E3volCbcvHbDCqQ0XceOP35xVYtY2xSZVSDc9+yz+3RWb2g/nVWUT/v3jA3E5F6r0sSdVUPsoxOviVRbshqFlScxXVTZckEPVr2kK7JSlmTeGtBZRTlb2iJd7fKa15Tr18p0ldEHPtAHOuM5sNUGkS0yrgXXFLhq2ZRcE7rchFOvWQy9RsGEnqALQYi4x0YtYDOUrgkqE9h43fcvmXVPPKr8CogmsC0TZZH82K+GfWOoP6+q8ApZep9aQGfsV7OQFfmz2kXHFNCJKyki0Qf2tmHfE16POfX4rf1Z0oAOr/twLPfqnJgLYKxavrpHrhzoFqtOcjogxiAGeyqxeovrSrpZ2hQ5V98x6eSTWxkDkRGv3qXp//7Hfp+jmh7U9Aiyj87XLph1//rG/rU58tJ+OsuWT7ZXCopFll6r0hfy0lc2TdM0TdM0N4vLoyGXePM89cpV3G8EKqgxxDSIoWBNLkAk7kRAJxd4SdPToIDqVQs6lQI67E1yj3ts1Z1AzgMfOOue8pR+gr6K8o2RYS6PNFiiVT5jN0OWfAkOpK/1RObuNVTH9Jy42qY1oLOT5SyVkdfptL8UgR2u/3Hy9HoKmTi9731bm11jg7nNnFttkHJrr5whjg3o6Mk6k8MaaxM+6ktQgcAEr+/EyX8tYDOUrleumLzH6zRZH2JpojyG1OVbX+vrHzdMrk3ElTYUlFHwJg1K6BiT7yhL8RtfmXVP+Y9Ng+ft86h+Q1rt65MGdBScyAXFxFwAY9Xy1T0IMMU06UDMO0eVUeXLBYjEnQjo5PQ0Tec67fUzRg9KeoRvY/NjBW/4SzCHfYFYQbZb5UupdkoDVFppVvMRpmmapmma68/l0ZBLvHmeTE5LT/M1mXzwg7c2rM3xpS+ddb//fX+NghGs1In5iesS0GHFRTxfzAV0rrqqf72J/N75zu2rNTSRXkX5xsgwJQEbAje86sYrbxzT3jql15IiJV/2wOFrJTFdVHmf/OStieRQHdNz4iqeqQGdnShnri1EZEwAJg3msVFxaWXNWLJnFXsyaYNjAka0mcrcaoPSQwJF1D2el/IzmY1Pc9ST9RMf0W+KmiNpTAJzK3jgj7/XTyJZPcDmuzG9FrAZSq9NUDVZZ5+ZuDlzyrhR8RTy6hMBnTRQUpqIp2mszmCVRsxPzAVvdCwGIUQ2PJ5vVvvYfo+fdFWc7psL6MQNhVPmAhirlm+tHNKBdIPpEglmpeX7yLsW8xPXJaBT04OSHrEijCCpvvCVBvdUr90oX6Q2S+cVOf7X3jrswzXm1TvTNE3TNM315PJoyCXePM9aQIc9NthrI31tZYhveMNwsIS0/RnQYSLL/dPJfqReHUvz1XW5fU+018kqyqc9UGoriCIVwOFaXhfitaHcvjolqvxjX2VKZaA6xNepctdFXWoN6KyinC1tEYm+sErr7nfv8+drXfGcKeQ1PvSL/XAI6nzpPyZTrTaotucLXN/JfEq8laU9XCIV9GEFSAzYaEPV3JeVxFrAZii9NkHltRHKlb6utFPMTbpzx8R0/5nSqzZQr1ylmxgPBXQ+/oHtE+qU2i8nDejo/Frgg7QYIFi1fGsBHQIBBC7i/i41EthBdrWVTHrdLMqyFLAZSq/po9LTOrICjlfhCHhgK/F8yHHSUz3iM+4ESGlL2jReo/2Gli3fWD1NqQCO9k6iLEM+xDRN0zRNc/25PBpyiTfPsxbQ0Ws7pQ2Oc9SeH7wSEz/FDTmWfnpbx1ltwaqLUlm0we8qAib6clFpo9l04+Y039zKIvHLX+5XRayifDrWIvef/7z/lDYrdb7xjT4wMHYPHsh5nE/9Sqt6CNYQWKAdaA8dV3nHyDN+Pr01oLOKcra0RYm5gN8qGIOdU2xQeyqV5NNCTf5LX60RtVcK+6mwr4qO0xasmGDSzxd14nUi7cqkm0lf3F8HanPd3ES0NkHVxHI3NmLVZsPpqym1gA51ZgNZJs+llU0E1AiWID+CZjo+FNCJk/KU+vR6GtBRYCYXkIPs0fKipy8GCFYt31pAB9b2cspRbVLatDnd7DnKUoGe3P5A+upblAes6aPS0zpqbyDahLaJ50O12dhgYWkTa92/pXzUHRm0yF3XYLM//n4vq1XpiGmapmma5v7j8mjIJd48z1pAh0GZPkHOapb4SXNeQ+F1kfRrOekeHs9//vb9W/SZZSbaucCIvl70tKdtv44gwb3u1aetImCiCT/5HXfc9r1YWCnBpFqfVs+t0OFT59deu718TLhXFXCifKeemi8f5LPWMTCiQAevXZ12Wh9UI7gW71fjJZf0gSDKU/scePzUtuqQK6/kSVouyKcgWfz6FcwFdFZRzpa24BU25B0ndO95z/Zy8xoZr5ONXRX19a8vnsc9XvKSPl+17xQb1IbLyOhz4dPO8Ic/7PfrGQpaQb06kZvURmqyTZBC52oiSlCntHpL1IoCXu1IP3/Nbz6JTVpuIlqboFKOfZ/jfsXiJ82ZmLO3T26D2Egmo9Tt8ssWP1NOvuTPfdJNX9PXhNLPvYt6NYry1z5bzn4oCr7AoYCOVtzQbqnc+bQ3n8eOAR2Vk+PvfMP212L0+XECPjFAsEr5wqGATvp5b/YtijrJa0d8xlv1UkCMPF/z4u16pc+x6xP0UZYKZiLnHyRByqHPuNf0UemxjgSPkC+vyMW9oNI2y63QicHSWK9VlK+mp/MVOOcsBmu0au+tZ/RyzO1jhA86+uhZd7e7zbpLL11MN03TNE3TXC8uj4Zc4s3zrAV0IIELJqpMKJkkH3VUv/8Gx7Sha9yLgw2WtYksk8oTTujJb74YxPW5gI4moqSxpwhle8xjZt1BB826//Sf+snyKgIm8Mor+7JwL+px7LF9Hocc0peB151iQCeVheqFPJALvx/60NWVj3s96lFbcj/00F5uD3pQXnaQr1mpTShLGnQaS1aeKA9kQbnVdhxDZsguvUZ1OOaYLb1I5cl1yDS38XZaZmRAexOEIK0U0Fm2nC1toT1sDj64z59AIF814xhBRt2D/ZXQz9prZykVyGJVFeVJZYUM07abYoPnnLMVlJR8IPfTPYa+2MVKDVZsxNUhJSrIoNU8PJlnEsiqnde/fHGfE/j2/zbrrv5Ffz2fqeZz1fPAzT/0X2WC/P4vL+j3aclNRIcmqNSDiS/5MsklOMS9OcYXn5goa8+VGrUigny0+SwT8PSLQqxEiCtcFOhSnf7rC7dPfpnM68tTJx/b14fzkB3HkEn6iXc4FNDR5+HTPFk5RFu+7XV9G6UBnXmeP+gDB1zDvSkDm+tSNsqAzHIBglXJFw4FdCCbTitYobrBZxzX34v7EuzQ+chCekV5qBPncy31JdBAWpRlGqyifZHXm/65/0T9qcdtBT6iPIb0MRcwwWec/Zq+/NyLtkKG/H3CkbPunWcuvnIFJQtdo3rRfuxbtKryze+V6Ol/Oma7fcZyQfmPudwLAc30YcBZZy2mm6ZpmqZprheXR0Mu8eZ5DgV0IKsAGGxpMgj5uhMT+IsvXnxKCpngnnzy1oSTiTarD1hhUHt1iad07AGSTkbZgJj8VrWHjkhZKJOCAJSVMnOv3KbI8Fe/2l4vyserLaw84R6rLJ824lXgCRJYyH0NCaaro5Z53YYvOPGZbH2KHVIGPtOe+2JWWkdkyooSyYc8JNN4HUR3PvrRrU2BaQteXyOtFtBZtpwxLU1P7/ezn/X3YOWT7oEdvPKV21fLaK+bsV8mY38b7Gds2afYICtxSFdbQDZ1ZkVPXOmToz4/PPZVCb2GwqT0/E/2gQsmczXGiSX3YUWFJo5MTD/49n4fjyl76KRlO+/DW5N+8mYjZ/b4YMPmnPwiyeMTH5x1zztxaxNo5cOqoosvXFy5A//8731ggIk3937ZP/WvMKXnXHV5v5pG+TJBJwjxqY/mN5EdCujM87yir5/u+6wT+gDAb3/dT8BjQAdec/Wi/PmKEitvSnvGwFXIF44J6EBW4pC3yom8CLSwGiiuEoIcox4KknEd9aS+2jw4J0sCLaxSI0jCOciS4CJByJI8hvSxFDBBd778+b6dFNh5yUn9Z+fVZjFwglxpU11D+ZALba96rap8MOop93tpRfclo9JmyHpwwSvQ2tDfNE3TNE1zfbk8GnKJNzf3OhXQGfvaz6o4FCg5EMhm4OlXxkxzr1GTc17nimmmmSM6Q6DJmyGbpmmaprk3uDwacok3N/c69foSK0rGPhFfBQ/0gA5P8XnVipVlfGUqppvmplMb9/LK1tj9cMwDm3rlilVbrDCK6aZpmqZpmpvH5dGQS7y5uZdJAIdNkeOXnXaDB3pAR59SX+Y1N9NcZ+orY56cm2OpTZHTTdJN0zRN0zQ3m8ujIZd4c3MvU58qZ8+U3B4sO8kDPaBjmnuB7FX0bxct7oXyiyv7DXd53YqvJ3lybg5RG2Wz6TTBwJhumqZpmqa5mVweDbnEm5t7jeyZc+KJs+4f/7HfRJqADoGdeN5O0wEd09x8ajNcNrzlS1B80YmNmfUFrzP/c7/Bc7zONEU2xmYDZH1mnU2qHQA0TdM0TXPvcHk05BJvbu418tlpfc76IQ+ZdZdcsnjObtABHdPcfPKp+bee0X/RSV+q4mtQtS94mWZKNsxGbwjofPZc64xpmqZpmnuNy2M1uRiGYRiGYRiGYRiGYRi7Bgd0DMMwDMMwDMMwDMMwNgwO6BiGYRiGYRiGYRiGYWwYHNAxDMMwDMMwDMMwDMPYMDigYxiGYRiGYRiGYRiGsWFwQMcwDMMwDMMwDMMwDGPD4ICOYRiGYRiGYRiGYRjGhsEBHcMwDMMwDMMwDMMwjA2DAzqGYRiGYRiGYRiGYRgbBgd0DMMwDMMwDMMwDMMwNgwO6BiGYRiGYRiGYRiGYWwYHNAxDMMwDMMwDMMwDMPYMPz/AW1hBxHchamZAAAAAElFTkSuQmCC;" parent="1" vertex="1">
          <mxGeometry x="980" y="1575" width="709.54" height="150" as="geometry" />
        </mxCell>
        <UserObject label="Alternative solution: https://learn.microsoft.com/en-us/azure/storage/blobs/object-replication-overview " link="https://learn.microsoft.com/en-us/azure/storage/blobs/object-replication-overview" id="csRXqz02GXvmB3zvsZuc-58">
          <mxCell style="text;whiteSpace=wrap;" parent="1" vertex="1">
            <mxGeometry x="1000" y="1726" width="460" height="40" as="geometry" />
          </mxCell>
        </UserObject>
        <UserObject label="&lt;a href=&quot;https://learn.microsoft.com/en-us/azure/key-vault/general/disaster-recovery-guidance&quot;&gt;Azure Key Vault availability and redundancy - Azure Key Vault | Microsoft Learn&lt;/a&gt;" link="&lt;a href=&quot;https://learn.microsoft.com/en-us/azure/key-vault/general/disaster-recovery-guidance&quot;&gt;Azure Key Vault availability and redundancy - Azure Key Vault | Microsoft Learn&lt;/a&gt;" id="csRXqz02GXvmB3zvsZuc-59">
          <mxCell style="text;whiteSpace=wrap;html=1;" parent="1" vertex="1">
            <mxGeometry x="900" y="983" width="450" height="40" as="geometry" />
          </mxCell>
        </UserObject>
        <mxCell id="csRXqz02GXvmB3zvsZuc-60" value="" style="shape=image;verticalLabelPosition=bottom;labelBackgroundColor=default;verticalAlign=top;aspect=fixed;imageAspect=0;image=data:image/png,iVBORw0KGgoAAAANSUhEUgAAA9sAAABwCAYAAAAOumNsAAAAAXNSR0IArs4c6QAAAARnQU1BAACxjwv8YQUAAAAJcEhZcwAADsMAAA7DAcdvqGQAAAASdEVYdFNvZnR3YXJlAEdyZWVuc2hvdF5VCAUAADRfSURBVHhe7Z2/ixvJ1vefv2ICg0JlCgw74EBwgxUYPPAEFjh4hAMPLFgwgYWDZTCYYYMVm1xmg0EsGHGDRQ4emIUFOTBycGEcGGbBMBssKDDMBQcKDOJ5HQgmOC/VXae7urpOVXerNauxvx9QMOpWT/WpU+dH/fwvAgAAAAAAAAAAQK38l/0FAAAAAAAAAAAA1gPJNgAAAAAAAAAAUDNItgEAAAAAAAAAgJpBsg0AAAAAAAAAANQMkm0AAAAAAAAAAKBmkGwDAAAAAAAAAAA1g2QbAAAAAAAAAACoGSTbAAAAAAAAAABAzSDZBgAAAAAAAAAAagbJNgAAAAAAAAAAUDNItgEAAAAAAAAAgJpBsg0AAAAAAAAAANQMkm0AAAAAAAAAAKBmkGwDAAAAAAAAAAA1g2QbAAAAAAAAAACoGSTbAAAAAAAAAABAzSDZBgAAAAAAAAAAagbJNgAAAAAAAAAAUDNItgEAAAAAAAAAgJpBsg0AAAAAAAAAANQMkm0AAAAAAAAAAKBmkGwDAAAAAAAAAAA1g2QbAAAAAAAAAACoGSTbAAAAAAAAAABAzSDZvkH83+f/l3xcfwMAAAAAAAAA2A6QbN9QkGADAAAAAAAAwPaCZPuGgmQbAAAAAAAAALYXJNs3FCTbAAAAAAAAALC9INm+oSDZBgAAAAAAAIDtBcn2DQXJNgAAAAAAAABsL0i2byhItgEAAAAAAABge0GyfUNBsg0AAAAAAAAA2wuS7RsKkm0AAAAAAAAA2F6QbN9QkGwDAAAAAAAAwPZSPNm+WtD0eZdat3ZoZ2eHdp6e2XeAawTJ9tfMjPqqDf5jRJf2pRqZHai23qbRB/sKAGAToM2tw/XYRXDNfBhRW9Xrwcy+AgCom49TOrrfivO8nR0a/Nu+YVu4WfY+SbYvT9qRYNsnrmIvaXbQjIV/u0v9pz3qPLvJhk9X0g023qFke/VmQC31jvfGN0IR6+OSxveUkWjR4M3KvviFIBiZD2PaU51hrQHNPpsXqoHAH4DrBW1uHQS7WDNfr2/9m0Cy/fdxtaTzF33qtBpJ8tVodaj/4pyWV/bNBp/OaXzQoSYPzjVa1Hk6ofnSvvGaqTlG+uJYzqjfjOusdb9Pg4cdOnxj37QtXI+9r4tiyfb7oXYuI7r0NbAbA5LtL5e/L9levB9HPYKD1/aVuhGMTM2OpM7A//pkA6qxoIt/HVH39oBKW8XPc5qe9Knz3zfD6W0zdba5rw/BLip/OJ/S6KBDe7/YV8rj862wc4o1bIkLJNsRdepwIT6f09EdTpZ3qft4ECVfSQJ9b0RzVz4wH8VxiErMv+3RQA3O6QRup9mn2d+ZcNccI1Xl2uuyIBc/xiPa21Iuv5xke7+NFEq2L3/piNduJl9+sg2unzhQ3qH+xgOt6zEydQb+1ycbUA2tUzv98gEyB8Mb1sevgTrb3NeHbBd98U2dwM4p1rAlLpBsR1yXDidEcm/R/stLygxbLM9peDfW8+6vC/NKNNgx+oe61qT+KzOrTmfHNg5m2ed9hVx7XRbikkZRvW6P//HLSbb320ixZNtz7WaCZBvUz/UFWtdjZOoM/K9PNqAaawTISLZro8429/Uh28XrimFg5xRr2BIXSLYjrkuHE/4zo+lfQlr89pAaqk4enmYS59Vv+3FC/b1jT6erMzpsKL3o0sTO0b8yrr0uC8EdJdvjf/xyku39NoJk+wahEmz+uP4Gfy/XF2hdj5GpM/C/PtmAaqwRICPZro0629zXh2wXryuGgZ1TrGFLXCDZjrguHS6EYPNj/W/Q4TvjS4PzZ/Ha795vQhL/lbBVdZmAZHuTeJNt/i7/8VXGQq+Z9TmcOQ2/Uffs0fij+f2KLt+MqH+3FfeaRZ8Gte72afTGmsoSEVKO0PUs/L5RuT/N6OhbvSmEvTbL3vzhVpM6B2M6/2TeFOB1P/6t5EA815fvxlkZ3WpS+/4xnZtrUAQHlX1H6z2aeuOLzC8MHJtlNO8OaPph5dQfL5nyrejy9yPq3jGf26fxO1dJzAa2ovmL/WSHfN410Q5Yz76Pn7v3QupOZZ3dpeFf/N2KFu8ndHS/Ta2oN1YuFwdYrk+uDawuo139d5NnNmj3/lEkw+JIRkb43pQ11yGvoWLddYjalmPCfESdqOxN6r92/NCgrGxmau2voV/RxioHI5qVkk/K6sMsWvOTqcN2l45eO3Th0wVNnnepzbJRn2abus8ndOFq2zXIdfVB7fy5m7Tlxp0uHb1ylI2x22wB2+OXAQfGrk8gWOb3d31sHSxt291wW5btzIpOH8XPPnybvbL8M27PiexYDi8vnJv9hGyadD1Tv3+Naf+2/n8FTvCo1OYK2ZR1/LIJPycv34RkBGufTtknXa1orus/lb+rnIqQ35au5+2fHMPk660wDt9ays45MOt9+Yfy73pD2p0GdZ5O6ZJF9GlGQ8teDN84jIzi8zy2p7f5WXrt7XPjeQoepcy12RTviGVCUVtS3LdGOOQdY2zce9exfriCrbSR2jgjXc/EWXb7LFmOcjpcj50NwnVyf0Kpt7qgYSuu66ldF5rVb72oTK0fL+xLTupvF3kbEVHJl4c6lfLXS9WlrTeivdRofbf9/PE74f4EtqeOjy2n0jFaOF53UUxO2bpcvLJziDg3kYjzKMM2cv4j6O66eJPtxZtjGjwd0L5OOhvf7kd/D54e08wTD7JhzhtHzV9D2lXXHxlTUK7mNHmQNqRdtRPe0wH1jQbUejKzEkHJ6TKh61kSA/nqnA7NgNtQuOXbw7jsUWWqzR8G1OOk/NYejQv8nwhPMh0hXJ+fxOvnd2614g0r1OYTkeJb7yg4qOQdX+pdB6Pd5ZWc063+2z85DOHVXK/n0Mbnof7fkZw61H+c1x8vSfkmNHui/nda5z2jAXRO5tYP0wZ29ms3rSMjqMkFrLzBn204GNbHe+PUcbD8M7rIMmpmNl+7+FXJYkDdKFDdod0H8d/qM/kzuY1oPqGu1ivlDLJyL7Ohm+AwpO9NWavghHXnsXGUX3tIF5aRyclR8fGU9qN3sNdkuakim2Qzlqd9w3iqTYfC/89k/muXmlo3Unlre2K1C7NdK6Pbi8pobOxya49GtiquKdfjV3ECFW8iY9iRnR3a/y3/rlVsT1gGFzSJ3rWrn71LXV0/g6cTcliClMWMjtV933Xi5zU6tM+//ecsbUuVbLsAt1Vbx5nPp7Svrn8zpLS6lnT2bDeRLcsutNmPyyeaSNeTdvN2Ql39P6OPZOsNSre5Ejalkl92wAGz9BxXYpYET4nvMPW9Y/nnkN+WruftnxzDDOj4jSeI8eHwrYXtnADX+9FJn5oqkVAyMu2ISmp4cyfts1P5Zf1RjBFAm/aMA/G7ZvvhThZbngx3YJmd0S4K2pISvjXCIW/Vps9/1LHQ3WOaWz+pYitdSG2cka6bcdZAJaCJTzN8itJ726c4KKzDddrZAIsXe9Hzdn8yXuBqGre/9rFhey3e6Y4dwXbY1N8u8jYiopIvzyfTWfLXC9dlCbse38+dsXoX8SiOjjtcbN3Ms6DZP1UZ9rV9aFDnO4cfrxSjheN1F8XkxM8+pmmUF2n9MO1czrcojHjAzGX4N/bgak14k+0i15xwwGP2bBvwVJJ9YyrJ+bPYSDQfjHOGU/VaHepdEbMbMkhOlwldz8LvuXdvj5oPRvmex48cPHXo2FrLsnyljIHd0+dBSKYTXNc/n1IvUvQBzSwZrT6c04X5j50OKttj1Pl5nl1v88eRdlC9XL0l9fPolBYZg7Oi+c/a6ZXRES5fs0mtO4c0s2S9/GOojYc9yqIbWHuP9pq7NPg931ubD1j9wcT8p7jhmfpIb46od5Lv5Upk5KhnHt1wGpEr7sDJB8yrv47jd20e0nmhXjXBYUjfmyOQdmCyOqcjHSDaU7tyckyOhWjS/m/22/spKpvui6xOKpZvOHDq0kQcccuidgyO2mOzS2N73dmncxq+MEZokna9S4e53nDVG6sTVrt+1pKrWxeWL3Ui0xpmE90KtqeUDByBQWFYDrbeaarZdgluy+7Af6EduhkE8nc7DjtDqzmNdYDafHaeuRTye9J1bjd795q0+8QaRQxQqs2VtSkV/LKT5Dl9muXslTsxu3zRd9pq1vdGRvYhvy1dF+yfp64qIfhWhdfOeUhswi0rAUvqv0HN5g41D7LJUtL5nvNHlzQ+cIzsXC1p8jB+njnVl31gJnliFtr2ZDqwfARsSVnf6pB38t53h/kRxwq2UiKkN9J1/r7ZbNHus5n1rkZHgdnBH0D6X0y9dtbDckp9Xntt+uOAH4jgewrKv/52IdiISr48oOee6966LGvXlc3VbTqXhK8u6fx9EUkrJLu6TowWjtd9eOWUyDfe5X5q+varJU0f60Td8utJPGDXs/qNnimzdhtxsJlk25jul3PcPMWscUhnrCxszM3vbLjXPWPwPcoREbqeJUlE7aBak643sa27gqfXFdz8wZVMm7iulzFUDgelSN7x4amjh5Mb7Q4NzLP1gvWzTH5XWEcS4ybXjTsASBuY1CByAavUExuhpz6J72aTTpWya84XaCVJgDB9Km4v8lqnLILDkL5PZN2j03ylpyNVT7JvlJFjsgNpk7q/2jIMU0Q2vimKbl2QMBKy9/a1PNyu5WUGnEBY9mwtuUq6wPrVodF/0m/L255yMvAFBkF8QVbQdki2XUZuyywHs4PuXE9ptjvtDIQkNOT3pOtJgFjETluUaXNVbEopv+xBfA53CBdNIvj+jO6E/LZ0XbB/nrqqhOBbFT475yOxCTmdNnx2o58/rohHE3eKH7PFdikji49j2hPaILc32T7aVLUlgm+15L34bT9OmO8c0pnDHJa3lTIhvZGuJ3Xm0MUYf6ehC+l/RWzAzjpZnumk3bGcxecHmCL3GNTfLgQbUcmXh/Rcvu6ry/J2ne1hMZ2WkezqOjFaOF734ZNT+mxhSZNzRivHA+56TuxgBd8dYmPJtjglTa8PMiuk2DoOVgQzCJWVIyZ0PQu/p7schiMQjBmfUVfI0bqSaRPXdbN36eSMFr4uIiEg4HeUFH/+s+P6q7gsbrnElNYRLl9mOpvF/Di+J7PjJTew/Og740q2xWBC66Pd+xWj1pbNaPqvYTzN5HbLWA+TN6ByoMWdGLIeOgMgEcFhSN+HOmlYztb1RI7zdAnB3i95p1eEsGxa/qSwiL4wfG+hgJ/btaxPEdweTWe7llzljpXpY/t6BdtTSgYKOTAI4gmgqtt2D86p4kYbN30OO1xr11wb1k+zkzFk06Tr/Cx7RkMRire5ijalhF/2wut8redwYub0L2rd9tspnZ4cRdMz27eN9dtItmUbyLbn8dS+EiVtx21Pu/08p7PfT2n0XE1DbVPLWL+dlYV7RkKanLpnQ7gpYktK+FZD3svXemRanZPsCpar2EoPIb2RrvP3Hef5wDEcaxW1E9L/UmzEzlos/xjpacSt/CwbhccPJPA9AXvM1N8uBBtRyZeH9Fy+LtdlNbuezmoY0Zk3MfAh2dV1YrRwvO5DlpNCP7txSK7o3bmsgeMBh+2OETr8amBzyXZScaaQ2aBnRxn4+SGjk294knIwoetZuBz9V/YVRdpDE/oUMeLOZNpEuK6mV0frU6L/1ZA3JhACguQdhTK66rpI/bh+50UoXwan8db14FkX5Ey2E4ORDSbiXkI7wFDGdUK9qNHpT6NFrbZaO8PrWvKNUQ60WA/Dn2LyExyG9H1I1k45p0nh7p3YkLd/liQeJiybkDHW72ZPr3ah244/8GAKPtcVJKwlV1s/U/KyqmB7SslAIQcGQYT3VBSxHYq8bffjuj/uWbd6uQvKwVXOkE2TrnP9HldoLsXbXFWb4mpvbr/sh4MSMwmTE7Pl2yNqGxvT7TRb1IrW0ur1vUi2He+jEWKBGJaF3W6XdPY8fmf+NG+34vWJD+IRqJwsXG1Fd874RrTyBGxJWd/K8v5mN9aVRp+mzkRbUcFWegjpjXQ9FGcppN9K+O532S8XLrsZxlhK1erllyQxPLruaH8JwWQnS/3tQrARnjYd4fRxAT33XJfrsqJdV7Og9AaY6tP4tsqGeJJddfkMF65YKhyv+5DlpBDqMsEhf9aZ4CdfZ+uywWTb0cvNIxLWaEtimJxJbko+iJGUgwldz+I3kLrizE2AhE+RDVH8hiJw/WpJFy+PqMu73KoRiWdn2WnhgvHwv6O7rkO/Ubh+50UoXwZfT5nYwGQDzRv3JMHElX6WPfr3eUaDqAd3lwYvL6wZBJIR9wVa/Btzwxj3p9imPZIMhO9DsnY6klSO/QO9/kmYtleEsGzkHUxjShht3XbkRMWk4HNZRmYv+ppytfWTycuqgu0pJQOFwzEVRXhPRXXbHiA3I0VPy7SnURaUg6ucIZsmXQ/Vr4/iba66TSnql0PwtMEkwNd6kEvMPujNe5pqh+A5rTLt3GWzQn5buu56VoxUV5XwtPt82y2GV2d8sYDgjy5/ifWn+WBIM3sBL7cJWxbGUoKkVbk6sIJ4bEkV38ry/p9+sn+Ba1lFTAVb6SGkN9L1MjGTb/TbRPpf5rXa7ezVgk6/i2cCtL6z9+uxmdEgqnd76raBniXpegcXdbcL0UZ42nSE08d59DxCvi7XZXW7rohP3Eg3O5b9hwvJrq4TownyLogsJ0Xo2Q75a50xN1xzfwKbw1Zgo8l24sT11Aue92+v8+Lv/aMPXOHmugRJOZjQ9Sx+A8lz/T2GpAxeQ1HgumY1n+idaneo+9JofILx8L+ju67ZcfsCVp4SVVhHuHy+6UQsA9c6GbGBeQy0FUxw8m3rI70ZxA3SObWc9SBvQOVAa0GT++patelbeSQZCN8LupDgdCSmHI3dG10b0hQgLJtAbzuXUZrmZcI7nvp0K8FYw+PrtWUjberE2nI1vjTIy6qC7SklA4XDMRVFeE9FddseIk2uoxrR75ubBl1QDrHMs1P7XbbQRLoeql8fxdvcGjaloF8OYq1vixOz/Cwh9h/OqeXO0bCQ35auC/bPU1eV8LT7fNsthldnvLGAK6m41EsQ3O2J69sliyS5jtqBtjv2co0gHltSxbea8k52RHZsGBhRwVZ6COmNdJ2/9400s65k9sfxIP0vxWbsLB+t5uvcMGGbJCfz8Xp6eQmVTb3tQiHYCE+bjnD6OI+eR8jX5bpcw66bfJ7T5JFeMvKgQMwUIdnVdWI0Qd4FkeWkCD3bIX+OB6x9dK6DzSbbSWNR09P0FDN75EHBTtt1jeGKtHrf4/WNgnPj5+aUx40/EZXPb60ErwERFIU3oBEbv4nuLczcKxgP/zsKdc0KKjndqwu92UcJHeHySRsVGJuuZYPAUAPzG+h0cwmeVp5f2+WUAfNer3l0GFBfoMWjQMU3mfEhyUD4XtCFBKcjseVonmmaP2olhE82PNKWGxEz4DopJD+esVBwWmz4HPYVzQ603phtvxa55snLqoLtKSkDp2MqivCeEWvY9hCxTiiZrHQdOt41OfPZcY35PIt317XL6LKrCem51badCNWvjzJtbh2bUsgvBzE3m9LTyh06kNfnlCVvPGT9rppfF+xfyKaXxdPufe/qw6szpZMKX1sObGaq303Z4pWePVJev+T/760Hybfa8jbPnLePwqtiK31UtAH8nu6NaFU16I0BHUsuJLyy24Sd5X0cvAl8lmTzStdvSm7CqKi3XSgEG2HrmI3Tx/G6cKF8vK9Frgz+ulzHrmdINonL/383UrK9TowmyLsgPjmFn+2wQ9zRXEIH62LjyTYrXPenYdSD7e55W9HsSZFjC/Ln5iXbuP/D3q5/Tsd8LrRDeVyEElGVdMZH6ezTxLFOevluRL0fiql12gPboP7vWXOcHE9hN/4/ZzTNCSc9PiUzqiMYj9A7uuuaG6Garm4dY2Fsl5//nYck2XbVuXGc2DfC2YZiAwsY6GQN2mH0HKfx0L3vkU6Z//vTVE9jcxswll1udE1hHEcyfJd3v6sPUxocFD3fT5KB8L2gCwlOR+KQo5pSxr2ld/PnEvvwyiaZWhg4VqI5yO86KsCjac7jntSxV78YsuBprqGjv+zN2eqSq4UzYK9ge0rJIGnj+ZHJMOzUXIFjddseRAeYjWfD2JYKo9deORhHf+Wmc/KoqxqpyaxT9B93GKpfH7nf+trcOjalkF8Ow7ODut8fRrruChBZ/o3H00ziER1j49wgrapfF+yfggNze2M4hbb3TtvkwtPuvXbOQ67eTUonFTyy3bCSUb/exqSdL8NoFDIw48eJx5ZU8a0OeadHgzp2xa5gK0Uq2oAk2Xb5NEOHnUmphE+HN2BnWSelUWon3HGpbNIfZr2kHYfOGS4C9bYLhWAjHDqWQfDlvPN9ZNuK6rPCV5el7foFzX63l+cokU/iDh1pkCyHnGxXj9EEeRfFJ6fgsx3JtrmZ3KNJ/ljOqyWdn/ToqOBskzJsPtlOjjhQH4fxZa7mNEoW+DdoNzmYPU3knLuyJjt0q7P4sgfRNx8N6VBSHgehRFSRnN+nGpg+bD7aWZXLUGJ6QhJQRGsI1GYxA+pFh7jv0vBHhyFhxWu28wfKN/vZ3TkF4xF6R7Gu56N0YzY+0P5hJ95NtjWg0Q/C7yS4fI+P48DAPFw+qc+97NmKEaEGFjDQRfRR6SIHdPpd+/d3o+C0eTCiI6cRN3b6VcGr0t+HHTo0Gm2yk2pUXx3qRWtDetRp6Tq0kzkRSQbC94IuJAiOxClHUzZ28O8jIBunfgV1wceSZk/StUvNaAMeVY/6O0sWy9eDeOMWs24ed2k3ChyE3W/rlKuBM9muZHvKyYB71NmO9r49zOu4k/RoNLVWsqfs0iMjGKhq24MY/zc3A8bEkkO0MVfaptV3rSfZc1oZdszRPVG5+/FeGc19Gn7vtnmh+vXh/K2nzVW3KQXsYBGSY9PUx9XZogrJZ+KmZeS675wcu21WJb8u2D+FUc7I1z7u0v6L+K54CVRgiqSJr92H7JyAs96ZCkmFqRexvrMt7dDo5/h5tt4y3IESfZxBbhjRllTxrYK803fMJ9zlbaVMFRuQxFk/834Fum1yzKS+u1fCfyo8OhxRq51NB1garRa11G7xwqf3r+y7m7400T3tR+3zsEPU3S5EGyHoWILgy9PEmH1fXMfxkqahM9mLCNRlObuu3+lWk9q6zlPflm8bMp5kW1EpRhPkXRSvnELPdifbGRtktBN1WgO3zaJLO8pwDcm20csXmr7CG3+1U+OgdqrsPBzS1NFDmbA8p/GBYcSUIvykRmADymMRSkSZ5bsx9e+2kkBNVZjaTfPo5UW2d6sAi1dHacIcGac+TVQPqsuQfDyj0UGHWkmPmTKEHer9NM330AjGI/SO3rr+5JDz8/h/e3/nwizf6pKmT83ntqhzMKZzexQqItTAAgbamBLj1Udbp5od6r84p6VoxGMWrwaJY1HyGf6Rva56JY+MRh3V+e0O9U9m+ToUkWQgfC/oQoLgSEQ5mqNLJQKGkGzo0wVNnhsBkU+/C7GiyzejbFuNdMu9g//qwyxuX1xGnaAOVL273rFuuWqkZFtR3vaUkMHVImqHfF/jztB9pIaL5TmNHhkJrdpMx7xe1baHYDsZnBbmkEMUnAxo7Bg9SFnS+Yt+GlBEznkYjZBLNi9Uvz7E33raXFWbUtgvB+BlGM5ZQsxHVca0c0MlQEev1H8VbJbCtsFBv+55lnrcHyPa501FbzVp/3/V/9frEUOnEZgE2n3QzjkQ613higUSZH+UjS2U3h7RVC2l0M+z9TYhWYKyxlRsny2x6zXkWz3yTmcBtmhgJRXlbaVEeRtgxlnRSKSR8CqfFr1vqTLEuHXYoDY7mybboY/97orYJhntvdWhwe9ld8feRLsQbIRHxyIEXx5h2bZIn1+q0V8h2dOE6rK4XV/Q2UmfOsaxfuvVuSBvRekYTZB3CWQ5hZ7tkb8awVZtmjsvtMza949o8qcvHqhOkmxvEjY88sgDuOlwHeemYkqEjBsAAITQAVfZabsAfjkm3kHZvWHXVwon24WnnwKb0KAGAODr4hqSbZ6ult+ICnwp8GZjxXeZRLINAFgPnkbu6YkHAvDLEdG5vyX81lcATyN3jViCYiDZBgCYbD7Z5vNQfVPMwM0m2R22ROCGZBsAsA5sd9acBv1VAr8cEe2bElyC8DXBO2x7du8HQZBsAwBMNptsJwvRuzSB4b7RzH7o0ejtIrfmZrXgXS7953DnQLINAKhMegYsRiVLAr8MBHhjpiam1a8Fkm0AgMlGku3LF13qPEx3IOyclEjCwFbCmzbFGy/ondCNTTiaj05pUWZ0AMk2AKAs6oiR+714N+AKu9t+zcAvAzeqw7xLPT6lwD7ZBJQGyTYAwGQzyTafa9rgXfnATWe1OKPx0y61zd37bjWpdbdPozfld5lEsg0AKA2f06uOFIp2prZvABLwy8BNvEmc0o2W3mUbrAeSbQCAyUaSbQAAAAAAAAAA4GsGyTYAAAAAAAAAAFAzSLYBAAAAAAAAAICaQbINAAAAAAAAAADUDJJtAAAAAAAAAACgZpBsAwAAAAAAAAAANYNkGwAAAAAAAAAAqBkk2wAAAAAAAAAAQM0g2QYAAAAAAAAAAGoGyTYAAAAAAAAAAFAzSLYBAAAAAAAAAICaQbINAAAAAAAAAADUDJJtAAAAAAAAAACgZpBsAwAAAAAAAAAANYNkG1wbs4Md2tlp0+iDfQVsFzPq7+zQzj9GdGlf8lL1dwE+jKitnnsws69cM5c0+scN1eGtkSFYi49TOrrfoh1Vlzs7NPi3fQPYKjZaXxuytwAAAGoFyfZGuKTxPeVcWzR4s7IvfrUg2b4pVA3i3L9bvRlQS31/b1zyeZqtSRTLJ9trv3tdbI0MQWWWM+o346Stdb9Pg4cdOnxj3/Q1cEP8a1319WFMe7d2aKc1oNln84Lb3gIAANgukGxX5fOcpid96vy3y9HdgGDAW/7NgGR7Uyzo4l9H1L09oHpSqapBnPt3ayecW5MobneyvXg/jkbRBq/tK9skwy8Dr6w3xMWP8Qjp3i+b1qRt5wb41zrrC8k2AADcaJBsV4WD15vq6P6G8iPZ3hQ66Nrpb2WyvTZbkyiWT7avk7h97VDflQBujQy/DLyy3giXNLq7vboHbK6jvjZkbwEAANQKku2q/A3Jaq38DeVHsr0pkGxfD0i2QYxX1hthu3UP2FxHfW3I3gIAAKgVJNtV+RuS1Vr5G8qPZHtTINm+Hq4jgK6ONwHcGhl+GXhlvRG2W/eAzXXU14bsLQAAgFrJJdvLPyd0dL9NTbVGKArgG9S626fJe3tt1Iou34yof7dFjei+9N7Rm0uy71ZcnrTTAOXTOY0POun/aXao/+KclvaPMg5lRZe/H1H3TiP5f7v3j2j60f5NyvLdmPp3m/p+4/9c2XdqrpZ08fKIum3jN40WdQ4mdKHWS3HQ6voYTs+fWJaXnfm81Qe1w+lu8tvGnS4dvVrYP3FTsPxMXh92qNnu0tHLC1mGAhmZ2PXf2KXu8yldul4+wq57/d6/u+UlkZHjX2Pav63//9Oz7I12+W41qXMwpvNP2dtKU/K5sf4aenKrSe37x3Qerd3jJNv1ySbeq8UFTZ53qd1K5Se3hWwQZ7chWe5C8OdL9LQ8Wo207Eq/jt8ZT8/8fknnL/rU0RsPRTbg0UiUn8Iuv/zeGrtMXEfLCgG08O7VbKEbTvxcnyQZvG4ZeijyrLPvYz3deyHZtYVet7tLw7+yV4o8P6a8bykk6wIUt6usc46P3c6crGjxPv5fmTZ2t0/jd0U1LGZjtvNK66Nhm5p3BzT9sEraSfsk+6Zb61+L1tfnOc3Unim3zThD8oGCXRW/13zSNj9p56ottKn7fEIXmbrgttSgw7fm9wZXZ3QY6c8+nWbWjdvtxuMfTBt0taTZ846W8R6N/2PfDAAAXw5Gsr2ks2e7hrPr0eDpgHo6aMk4u6s5TR6wk1BBST+6t284qNaTWS5YTALMl3qXzttd6ke/S4/GaP90Yf2KHcoxTU860f/rPBzQ4GmPOkkwvE+n9j8z30c5e/s3rg2Llmd0eIefafwmclbasS9mdPx0QIPvtKNodGhf/a0+/5wRu2QxGKgoO37e8asRdZRD+1bXz7epk9v/zf6Vg4Lll/RB7aiaBFH3RjTPBbAy5jtEG740O9RTz3zcpV2ul2afZvZrmDJTAcnj+DctXY7W01nesQsk9fJ2Ql39btHHSIaWbw9p13rvRM639mhs12lByj53Hum7utaK31npYhSQsl5d0CSqu65+7i51uS6fTihtSWlSrgIh1eZM+TWf2PIz2twve5nymnraPLD1VAj+hIST5rEuR3Wo20FPB8gZe5P8fkKzg2YqD+Mddpr25kGKCjZgrnUzeqbWT9b59j712lp/iuqA8O7VbKGbi1/jOu9+E/9u9wHrwIAmf+qbrlOGIiWe9X4Ybyxn6xLz1zDW+Xtjt80KPT+ivG8pJGsvZe3qgmb/VM/f12VqUOc7/T8z9lrgdV//L9PXsI41S20wthHbeTXXa5tdPrdD/cclk+2/278Wqi8jIWcbY+rcXVvnBbsqfp+th8z/4MT71h6N5un9q996ubo0Wf22H11vfG90rJT1y4kNmtL5M6OTwVWPAADwBZEk25e/6MD+ziHNrB7o1YcJHf9vas7ZUDYfjGlu++pPsyRh7f6aDQU4wFSfzs/zjCFe/XGknUPP6jk1Ru+afZqaZbta0uShNuw/ZgPTxa9d7biOs2W8WtJUBZu58vGGJju0+2xmjS6s6PLlMZ2ava+BadhSMFBVdumISpP6r7JOf/lSO8rW0EiwAgTKn8jPoQ+0mtNYO9nms3Prokz8Dg1qNlvUfZGtf7pa0Omj+JkZh27K7GCarZfVnI6jOmvS4Tvjew9cL3v3mrT7xDGK8JEDyQ4d/5W9uHzVp6a6dn8SDnJtyj738yn11HeNAc2sMq4+nNNFpgDcRqRp5DM6+h/HyOXqnI6ipKFLE9fzGk1qtro0tspLH09pPwra7JEQIfhzJpwrOo3abiMf8K8u6fy9USBzNobdnpUO6MDVbjOlbcDVOR1G79Wk/d+sGjZ03tWuRZzvXtUW+mEb4RxhvS4Zeij3rDkNI910y3r+U5yw7v+WPqjc8xXVfIvCK2sP1e1qhVkVijdH1DvJj+onOlbClm3Cdia2/dEpLSyfO/9ZxyQlku2t8a/e+rqk8UE8cp8h0bmG5c8Euyp9n9TDLh2+sTsIVjR/0Y3ronlI5yzzz6e0H/2mT7NcB/qKTh/FzzNnkZT2y2yD7u3RXrNLo5IzKwAA4KYSJ9uJoe05RogtFtqQNw7pLGeUNTzq8M2QjM7TNMB8eJrrWU6D7x0aZM6i5IBol4bvze81PAKS6Q0+11OehPf5OKY9y/Fzz627bA4CyaozGFhDdhwM7DoCPzXCOWyp6x0aFZ2O5S0/y2+PxtIU/URn7GllMvwOjQN7JFXjeibL7JshXbhk9vYwGrFo5IJTN0lQJQSZ58/ikYyecxSDp9vZyWmY0s/l+hHKmSWUbMvw8TTZpIGf16D+a2dNpe3l0alRl0Lw50w4ORgtIMskUXTro3tUprwN4ETI7uxJWOoOELtd+3C+e1Vb6MebAF6TDGXKP2vxIp5VsfuTaQkV2t5l7Gj551fzLTFeWYusY1d9yVsV2GcUtxm1286gP1wm7aBQsh183jX614r1xe0w+76CXRW+53qQl2Bw8pztrOKlG+Z3Edzxa84iqeKXExtUvHMcAAC+BOJkW081E4NMA3YGrt7+FHY0WefEAabdq8zMf3Zd51G2Q3KmU1fT/HUOkoQpUa5Ag0ddxTVLNt5k1R0MrCO7pHyCk5o+9l/P4Ss/y++hmUjl4QClaEJQ5P74PVpJ8OsOPgw4EHC9hwMuQ88OKCIMvXAFEGJyGqLCc41R1u7JGS1cxU0olmyrdduz38c01NO1W8YaSXey7Tm3m9tdZrTHHfxJCWc6CjWiM98Lhjoe5sfx9cfT9LsKNsDWvTwVAmjh3avZQj/eBPCaZChS5VmcIFuJkTOQr/L8Kr5F45W1xFp2tYLuJah12zOa/msYTyW+3TLWbxeoO03ttvNVHHf4/GGZNdtb5V+L1NfnOZ39fkqj52qae5taxvrt6sk210NgVgwvL3hi1L5uV9kO1LTTy7RFlfwy26BSMwQAAODmEyXb7NDcTjRL0Xtj55UNXDObAjlwO1aXQzFxJBrJOrXQh3/DjjHgoEx8yaoQDKwjO9fzTEoHf77ya/n5g5bi78OE3kFhv4c53db7cb2HAy7DsT1YFsG6FP6kcpZ/k+qxfI/9Metv+ccwXT+s1v4djGhmTz2McLQBE7W27n/StcDqWa3b7WiN3b5ek+hMtr0ydf1P4XdCwknLcxpGo13xp/GtsIGR9HvGpcsbsQEFAmgboezVbKEfu+1kEMqRUIsMPVR6Fo/wZ6evxiNw1sZolZ4v6GuCS8f1FZ+sJdayqxV0TzGfUC9KvvSn0aJWW+0PwGuK8+8mUbftdL9nFqkduHxJkecprsW/eutrSWfPs36tebsVr1d/EC+PKBYDub7X34USWm7vmY4fTtTNWRU8IyE706KSX+b/aXboAQDAV0Am2e6/si/nKXqvyzFXCzBdDsXEERDxSP23+8nmNe4PbyLFjrFPU6FXPocrODVwOe91ZOd6nknpYMBXfi2/9s/OqCqh6PswoXdQ8HvwqA7/D3MjIuenyGZBwTJoXTI3jRM+6WZIvElZ/nP8hktU5bka3h2fd/6N9hQ4c29M5gycVzR7Eo+Y7D6Z0IU1guxuk6E2p+D/aY5+C78LJHrxzsxGZ8CdQzozXzDwe6cub8QG+AJoAaHsbrmnuG2hH68NEMqRUIsMPVR8Fi9XSBLUK61jmY3Rqj5f0NcEuV15ZS2xll2toHufZzSIZsfs0uDlhTU7JtV3+90k6radoTagkNqBqyxuueW5Fv/qqS/eH6f5YEgze2E560ihGMj1vf6ufZydDWIjJL68F0LSYaHvs2c9VvLLIRsEAABfKFGyzWsVQz3uimL3sqPJrscMOVe3Y3U5FBNHQPROT4cyp0h5WdDkvnqGbwqphSs4NXA573Vk53qeSelgwFd+ll+h6Y7Fp9bF9/tknJ/ixzLr/JIrZSX8cuQ1lZ7p05Wo57mr+URvTLZD3ZeOpRbOwHlGgygIzk+FVfD6Pmey7RsdYf3JrGcV2mrRIOvznCZ6k7ydB8Z059DvXbpc2gbwBonSyJ1iTsd170YutFe3LfTjtQFCORJqkaGHqs/iI4e0/nLynVtXWun5gr4myO3KK2uJteyqnLyJvBlEZXTvZ8E2Kf9uEnXbTk46fZ0PvJzCbgeusmyVfxXri+2Me68KfodiMZDre2PvAnGGjtE5ZeuGtbdBnHznj9er5JdDNggAAL5Q4jXbbAR9G4swbIx99/LzrNGHagGmy6GYOAIi3mTGV0YL/t92D66IKzg1cDrvNWTnfJ5B6WDAV/7kTE3fRj4z6usgWHwXCy6jexOaeE1jbvMa5xE/1fHLkTeOKbF2vxA1Plevc8wGLI42wHjr+ULv+GzrDT9P2DgqWn8Zj4BkN68S2mqZIIvXyZrvEvq96x0r2ABeUxrUT1F/HAhlr2YL/XhtgFCOhJpkKLLGs+Jp4yr55GnljnXBlZ4v6GuC3K68spZYy65KyZuMV4cSXc6/m0TttpM7H+w1+Yxhn+x3cJZlm/yrWF+yTskbwkl66v4+fEb9imYHuk3l6srcyE5PK8/934p+OWSDAADgC0Uf/ZVONXUdmaGO/hq+ZHPrvzc9XiN/hme1ANPtUFLczis9UmSSP6LkaknnJz06MjegSabcNfPHUkVHfw1p4nSa9q6x+qrTeVeXnft5KeWDAX/5fUfBmUfUlOnZ5jI6jyT5NI3PG87tZsuzDnao82P+CBt1TNT0aT9/fqtASI4qAIyPRdmniWN99PLdiHo/VAgWyj73zxlNcwqSHkOTTXI5sMuPQKh6jka27RFb4zikvN6wbrjrPznGJ7fzs9BWnUGW2qxtTiu7PpeTeGMdMwB3/t7AlShWsQH8nIB+evXHRih7NVvoJ5namdu9Wy5HQl0y9FD5WTqwb3x/GOmX1CFa/vmCvia4fYvCK2sP1e2qlLx50CPb6hzx9NxuW5fz7yZRv+3kd3Ict2nZJ7sduMuyTf5Vqi8e2W5YR4z5jjqT9FT4/kN8VrjTjplHfzl22Y/u0LNHut8fRjbBnbRX8MshG6RiMJXc3xF2OAcAgBtKcs622kRplGxW1KDW3V605qanN1DKGH/r3t37/fjeu6lz3PslH4RUCzAFh5IgBESqjPrcbLOMatfPpt50Krcr9nyUbkjV0BuWqN1bo9EI22mmx2eodWq9p33qPhonZRSdd0XZic/TlA8G/OVXveyzJ+k62qbWh/793Xg0Qk3XezJzHFskw+9wdBIna407aqOeAs9cztLg8FZT10u8o3b8u+JHsoTkqJifpEEPl3HwuEttLkOpqaoppZ7LGz41443MBqp+7ujdw5t9mllC4rV2O7da0f29bw+T9pD+X61vj7u0q3S62afRD642yW3uiEZRwMt6apRhp0WD13ZNCW3VGWTpe281qZ20TdaDJvXNZzt/byAkilVswPyXeOdds464XK0nIzpyBtAehLJXs4UBeLRJlVW968MOHfL7CeVIqFGGIpWfxWduq4+rQ0lT+vmCviYIvkXhk7WXqnZVSt48mPJo7EZ2gf9P84B12fFuAhuxnRmfG5dRyTKqr9YgsU92OxDLsjX+Va6v5WvurOT671Enkk+HRj+vu2Y7Zvl6EO98rz5N5d/jeojsvvquNcj5kITk+Dn1cXfGR5T1yyEbZGxyOPi3fREAAG4uabKt4M2Y2qljioL95xO6sHvhXfdGCeqQpo5ebUW1AFN2KDGegEiNZrzoU8c44kiVsX3/iCZ/Cp7m0wVNnhvBgXKI7S4dvbzI994uz2n0yAicvjtNplR5nXcF2XmfVykY8Jc/ZkWXb0bUT5wnJ0cDGr8T5OfBfAc1yrGfJG5axr87dqJmVE+5VS87zZZnh243ITkyy3fj7HurDihJD0pQ+Lkfz2h00KGW8b6NVod6P03zo3aKqwVNn3aS5zbuDI012rodmIHRwZjOl1KbNNpcNCK4nwZpUf0fCXoqtFVnkLWgs5M+dYzjbsQ24Py9gZQoKirYgLiO0nKppCHWTTmAFhHK7pZ7itsWhlm8GujOwTh5Gf6hLwjlSKhZhiIVn8XHDwWnrZZ6vqCvCR7f4pN1kCp2tYLuKZbnND7Qyav6P80O9V+c0zJ5nvvdXGzMdn6yyqiS7uexnZPagbcsW+Ff/fW1eHVkdFyqToEjmqqlBWtvkJay+jCLfQjrqPazA1X/rnow4Kno0iyShDJ+OWSDlnpku3VE54HyAQDATSKbbAMAAAAAbAGcbOen1QMAAAA3AyTbAAAAANgyeEM8e2d2AAAA4OaAZBsAAAAA2wXvLu7afR4AAAC4ISDZBgAAAMC1M/uhR6O3i9xeHasF7xzuP4cbAAAA2HaQbAMAAADg2uGNx9LTP/qZjc2aj05pgVFtAAAANxgk2wAAAAC4dlaLMxo/7VLb3D3+VpNad/s0euM5nQIAAAC4ISDZBgAAAAAAAAAAagbJNgAAAAAAAAAAUDNItgEAAAAAAAAAgJpBsg0AAAAAAAAAANQMkm0AAAAAAAAAAKBmkGwDAAAAAAAAAAA1g2QbAAAAAAAAAACoGSTbAAAAAAAAAABAzSDZBgAAAAAAAAAAagbJNgAAAAAAAAAAUDNItgEAAAAAAAAAgJpBsg0AAAAAAAAAANQMkm0AAAAAAAAAAKBmkGwDAAAAAAAAAAA1g2QbAAAAAAAAAAComf8PoHaaINu5zvgAAAAASUVORK5CYII=;" parent="1" vertex="1">
          <mxGeometry x="900" y="1013" width="678.56" height="77" as="geometry" />
        </mxCell>
        <mxCell id="csRXqz02GXvmB3zvsZuc-61" value="Primary Region has Private Endpoint to the KeyVault" style="text;html=1;align=center;verticalAlign=middle;whiteSpace=wrap;rounded=0;" parent="1" vertex="1">
          <mxGeometry x="-20" y="851" width="168" height="30" as="geometry" />
        </mxCell>
        <mxCell id="csRXqz02GXvmB3zvsZuc-62" value="&lt;div&gt;-&amp;nbsp; Private Endpoint needs to be created on Secondary Region&lt;/div&gt;&lt;div&gt;In case Primary Region is down:&lt;br&gt;- VNet link between Private DNS Zone and Primary region VNet to be removed&lt;/div&gt;&lt;div&gt;- Vnet link between Private DNS Zone and Secondary region VNet&amp;nbsp;region to be added&lt;/div&gt;" style="text;html=1;align=center;verticalAlign=middle;whiteSpace=wrap;rounded=0;" parent="1" vertex="1">
          <mxGeometry x="-108" y="1170" width="258" height="30" as="geometry" />
        </mxCell>
        <UserObject label="https://github.com/adstuart/azure-privatelink-multiregion" link="https://github.com/adstuart/azure-privatelink-multiregion" id="gxW5kQXdkVcCC8AFYY3N-1">
          <mxCell style="text;whiteSpace=wrap;fontSize=18;" vertex="1" parent="1">
            <mxGeometry x="190" y="640" width="489" height="40" as="geometry" />
          </mxCell>
        </UserObject>
      </root>
    </mxGraphModel>
  </diagram>
</mxfile>
